Serifas_Text_Heavy.ufo
<glyph name="ampersand" format="2">
  <advance width="742"/>
  <unicode hex="0026"/>
  <outline>
    <contour>
      <point x="738.449" y="350.9" type="curve"/>
      <point x="738.449" y="438.568" type="line"/>
      <point x="561.823" y="438.568" type="line"/>
      <point x="561.823" y="438.568"/>
      <point x="533.345" y="120"/>
      <point x="323.668" y="120" type="curve" smooth="yes"/>
      <point x="161.032" y="120"/>
      <point x="66.9468" y="336.85"/>
      <point x="276.608" y="396.102" type="curve"/>
      <point x="276.608" y="396.102"/>
      <point x="238.873" y="472.625"/>
      <point x="238.873" y="472.625" type="curve"/>
      <point x="53.2733" y="420.411"/>
      <point x="18.4321" y="328.623"/>
      <point x="18.4321" y="213.746" type="curve" smooth="yes"/>
      <point x="18.4321" y="78.6788"/>
      <point x="162.546" y="-17.9635"/>
      <point x="320.602" y="-17.9635" type="curve" smooth="yes"/>
      <point x="518.079" y="-17.9635"/>
      <point x="604.772" y="98.3232"/>
      <point x="680.736" y="349.005" type="curve"/>
      <point x="680.736" y="349.005"/>
      <point x="592.618" y="276.079"/>
      <point x="592.618" y="276.079" type="curve"/>
      <point x="592.618" y="276.079"/>
      <point x="738.449" y="350.9"/>
    </contour>
    <contour>
      <point x="548.297" y="547.221" type="curve"/>
      <point x="548.297" y="661.007"/>
      <point x="479.307" y="759.814"/>
      <point x="331.252" y="759.814" type="curve" smooth="yes"/>
      <point x="243.524" y="759.814"/>
      <point x="129.431" y="708.694"/>
      <point x="129.431" y="604.039" type="curve" smooth="yes"/>
      <point x="129.431" y="515.945"/>
      <point x="163.851" y="476.552"/>
      <point x="265.372" y="348.206" type="curve" smooth="yes"/>
      <point x="352.893" y="237.56"/>
      <point x="574.741" y="-17.9869"/>
      <point x="574.741" y="-17.9869" type="curve"/>
      <point x="738.449" y="-17.9869" type="line"/>
      <point x="738.449" y="-18.5067"/>
      <point x="255.389" y="500.214"/>
      <point x="255.389" y="590.679" type="curve" smooth="yes"/>
      <point x="255.389" y="686.771"/>
      <point x="420.76" y="697.084"/>
      <point x="420.76" y="546.215" type="curve"/>
      <point x="420.76" y="545.507"/>
      <point x="548.297" y="547.221"/>
    </contour>
  </outline>
  <guideline angle="0" x="0" y="-18"/>
</glyph>
<glyph name="comma" format="2">
  <advance width="341"/>
  <unicode hex="002C"/>
  <outline>
    <contour>
      <point x="309" y="79" type="curve" smooth="yes"/>
      <point x="309" y="143"/>
      <point x="280" y="167"/>
      <point x="225" y="167" type="curve"/>
      <point x="168" y="168"/>
      <point x="141" y="143"/>
      <point x="141" y="80" type="curve"/>
      <point x="141" y="80"/>
      <point x="139" y="52"/>
      <point x="150" y="26" type="curve"/>
      <point x="179" y="42"/>
      <point x="185" y="53"/>
      <point x="185" y="53" type="curve"/>
      <point x="144" y="58" type="line"/>
      <point x="54" y="-21" type="line"/>
      <point x="101" y="-82" type="line"/>
      <point x="101" y="-82"/>
      <point x="309" y="-57"/>
    </contour>
  </outline>
</glyph>
<glyph name="hyphen" format="2">
  <advance width="316"/>
  <unicode hex="002D"/>
  <outline>
    <contour>
      <point x="27.2162" y="213.736" type="line"/>
      <point x="292.835" y="213.822" type="line"/>
      <point x="292.835" y="323.822" type="line"/>
      <point x="27.2162" y="323.736" type="line"/>
    </contour>
  </outline>
</glyph>
<glyph name="period" format="2">
  <advance width="160"/>
  <unicode hex="002E"/>
  <outline>
    <contour>
      <point x="26.8081" y="-1.2556" type="line"/>
      <point x="136.808" y="-1.2556" type="line"/>
      <point x="136.808" y="108.744" type="line"/>
      <point x="26.8081" y="108.744" type="line"/>
    </contour>
  </outline>
</glyph>
<glyph name="zero" format="2">
  <advance width="774"/>
  <unicode hex="0030"/>
  <outline>
    <contour>
      <point x="376" y="-18" type="curve" smooth="yes"/>
      <point x="183" y="-18"/>
      <point x="101" y="105"/>
      <point x="101" y="375" type="curve" smooth="yes"/>
      <point x="101" y="650"/>
      <point x="187" y="759"/>
      <point x="386" y="759" type="curve" smooth="yes"/>
      <point x="580" y="759"/>
      <point x="662" y="634"/>
      <point x="662" y="364" type="curve" smooth="yes"/>
      <point x="662" y="89"/>
      <point x="576" y="-18"/>
    </contour>
    <contour>
      <point x="387" y="639" type="curve" smooth="yes"/>
      <point x="276" y="639"/>
      <point x="248" y="564"/>
      <point x="245" y="415" type="curve" smooth="yes"/>
      <point x="241" y="164"/>
      <point x="273" y="100"/>
      <point x="376" y="100" type="curve" smooth="yes"/>
      <point x="487" y="100"/>
      <point x="515" y="175"/>
      <point x="518" y="324" type="curve" smooth="yes"/>
      <point x="522" y="575"/>
      <point x="490" y="639"/>
    </contour>
  </outline>
</glyph>
<glyph name="three" format="2">
  <advance width="661"/>
  <unicode hex="0033"/>
  <outline>
    <contour>
      <point x="321" y="-19" type="curve" smooth="yes"/>
      <point x="189" y="-19"/>
      <point x="103" y="9"/>
      <point x="58" y="79" type="curve"/>
      <point x="68" y="255" type="line"/>
      <point x="133" y="255" type="line"/>
      <point x="163" y="104" type="line"/>
      <point x="131" y="183" type="line"/>
      <point x="173" y="122"/>
      <point x="232" y="101"/>
      <point x="305" y="101" type="curve"/>
      <point x="387" y="101"/>
      <point x="440" y="127"/>
      <point x="440" y="256" type="curve" smooth="yes"/>
      <point x="440" y="301"/>
      <point x="412" y="338"/>
      <point x="354" y="345" type="curve" smooth="yes"/>
      <point x="186" y="364" type="line"/>
      <point x="186" y="452" type="line"/>
      <point x="354" y="461" type="line"/>
      <point x="424" y="470"/>
      <point x="407" y="548"/>
      <point x="397" y="576" type="curve" smooth="yes"/>
      <point x="385" y="611"/>
      <point x="345" y="643"/>
      <point x="299" y="643" type="curve" smooth="yes"/>
      <point x="253" y="643"/>
      <point x="200" y="642"/>
      <point x="156" y="572" type="curve"/>
      <point x="192" y="648" type="line"/>
      <point x="160" y="510" type="line"/>
      <point x="95" y="510" type="line"/>
      <point x="90" y="704" type="line"/>
      <point x="137" y="742"/>
      <point x="233" y="758"/>
      <point x="298" y="758" type="curve" smooth="yes"/>
      <point x="469" y="758"/>
      <point x="521" y="658"/>
      <point x="540" y="574" type="curve" smooth="yes"/>
      <point x="566" y="456"/>
      <point x="501" y="412"/>
      <point x="456" y="412" type="curve"/>
      <point x="422" y="412" type="line"/>
      <point x="482" y="454" type="line"/>
      <point x="483" y="359" type="line"/>
      <point x="418" y="392" type="line"/>
      <point x="454" y="392" type="line"/>
      <point x="499" y="392"/>
      <point x="582" y="348"/>
      <point x="582" y="248" type="curve" smooth="yes"/>
      <point x="582" y="92"/>
      <point x="478" y="-19"/>
    </contour>
  </outline>
</glyph>
<glyph name="six" format="2">
  <advance width="760"/>
  <unicode hex="0036"/>
  <outline>
    <contour>
      <point x="691" y="258" type="curve" smooth="yes"/>
      <point x="691" y="157"/>
      <point x="650" y="-18"/>
      <point x="414" y="-18" type="curve" smooth="yes"/>
      <point x="221" y="-18"/>
      <point x="139" y="105"/>
      <point x="139" y="375" type="curve" smooth="yes"/>
      <point x="139" y="650"/>
      <point x="225" y="759"/>
      <point x="424" y="759" type="curve" smooth="yes"/>
      <point x="511" y="759"/>
      <point x="585" y="754"/>
      <point x="629" y="703" type="curve"/>
      <point x="629" y="703"/>
      <point x="620" y="500"/>
      <point x="620" y="500" type="curve"/>
      <point x="550" y="500" type="line"/>
      <point x="517" y="649" type="line"/>
      <point x="543" y="581" type="line"/>
      <point x="505" y="636"/>
      <point x="467" y="641"/>
      <point x="425" y="641" type="curve" smooth="yes"/>
      <point x="314" y="641"/>
      <point x="286" y="564"/>
      <point x="283" y="415" type="curve" smooth="yes"/>
      <point x="279" y="164"/>
      <point x="311" y="100"/>
      <point x="414" y="100" type="curve" smooth="yes"/>
      <point x="501" y="100"/>
      <point x="546" y="160"/>
      <point x="546" y="222" type="curve"/>
      <point x="546" y="295"/>
      <point x="517" y="322"/>
      <point x="432" y="322" type="curve" smooth="yes"/>
      <point x="321" y="322"/>
      <point x="278" y="322"/>
      <point x="241" y="322" type="curve"/>
      <point x="243" y="388" type="line"/>
      <point x="317" y="388" type="line"/>
      <point x="317" y="426"/>
      <point x="338" y="428"/>
      <point x="366" y="428" type="curve" smooth="yes"/>
      <point x="402" y="428"/>
      <point x="438" y="428"/>
      <point x="458" y="428" type="curve" smooth="yes"/>
      <point x="602" y="428"/>
      <point x="691" y="374"/>
    </contour>
  </outline>
</glyph>
<glyph name="A" format="2">
  <advance width="785"/>
  <unicode hex="0041"/>
  <guideline x="0" y="289" angle="0" identifier="wNwt7PKC1l"/>
  <outline>
    <contour>
      <point x="386" y="557" type="line"/>
      <point x="515.175" y="97.4277" type="line"/>
      <point x="536.857" y="206.194" type="line"/>
      <point x="432" y="152.545" type="line"/>
      <point x="432" y="0" type="line"/>
      <point x="746" y="0" type="line"/>
      <point x="746" y="152" type="line"/>
      <point x="645" y="189" type="line"/>
      <point x="674.169" y="140.426" type="line"/>
      <point x="510" y="740" type="line"/>
      <point x="48" y="740" type="line"/>
      <point x="48" y="588" type="line"/>
      <point x="166.497" y="557" type="line"/>
      <point x="30.5985" y="97.4922" type="line"/>
      <point x="103.66" y="199.552" type="line"/>
      <point x="-46" y="152.061" type="line"/>
      <point x="-46" y="0" type="line"/>
      <point x="292" y="0" type="line"/>
      <point x="292.373" y="152.057" type="line"/>
      <point x="216.561" y="198.43" type="line"/>
      <point x="213.927" y="98.4001" type="line"/>
      <point x="337" y="557" type="line"/>
    </contour>
    <contour>
      <point x="169.309" y="257.556" type="line"/>
      <point x="559.309" y="257.556" type="line"/>
      <point x="559.309" y="403.556" type="line"/>
      <point x="169.309" y="403.556" type="line"/>
    </contour>
  </outline>
</glyph>
<glyph name="B" format="2">
  <advance width="735"/>
  <unicode hex="0042"/>
  <outline>
    <contour>
      <point x="252" y="740" type="line"/>
      <point x="384" y="740" type="line" smooth="yes"/>
      <point x="549" y="740"/>
      <point x="679" y="693"/>
      <point x="679" y="543" type="curve" smooth="yes"/>
      <point x="679" y="411"/>
      <point x="525" y="332"/>
      <point x="344" y="332" type="curve" smooth="yes"/>
      <point x="252" y="332" type="line"/>
      <point x="252" y="425" type="line"/>
      <point x="334" y="425" type="line" smooth="yes"/>
      <point x="462" y="425"/>
      <point x="508.35" y="448.43"/>
      <point x="508.35" y="500.427" type="curve" smooth="yes"/>
      <point x="508.35" y="557.009"/>
      <point x="449" y="575"/>
      <point x="364" y="575" type="curve" smooth="yes"/>
      <point x="252" y="575" type="line"/>
    </contour>
    <contour>
      <point x="257" y="0" type="line"/>
      <point x="26" y="0" type="line"/>
      <point x="26" y="151.157" type="line"/>
      <point x="100" y="184.157" type="line"/>
      <point x="100" y="557" type="line"/>
      <point x="26" y="588" type="line"/>
      <point x="26" y="740" type="line"/>
      <point x="257" y="740" type="line"/>
    </contour>
    <contour>
      <point x="252" y="399" type="line"/>
      <point x="446" y="399" type="line" smooth="yes"/>
      <point x="577" y="399"/>
      <point x="700" y="333"/>
      <point x="700" y="208" type="curve" smooth="yes"/>
      <point x="700" y="52"/>
      <point x="575" y="0"/>
      <point x="394" y="0" type="curve" smooth="yes"/>
      <point x="252" y="0" type="line"/>
      <point x="252" y="168" type="line"/>
      <point x="374" y="168" type="line" smooth="yes"/>
      <point x="498" y="168"/>
      <point x="506.709" y="198.351"/>
      <point x="506.709" y="251.283" type="curve" smooth="yes"/>
      <point x="506.709" y="313.848"/>
      <point x="461" y="323"/>
      <point x="344" y="323" type="curve" smooth="yes"/>
      <point x="252" y="323" type="line"/>
    </contour>
  </outline>
</glyph>
<glyph name="C" format="2">
  <advance width="708"/>
  <unicode hex="0043"/>
  <outline>
    <contour>
      <point x="686.413" y="107.623" type="line"/>
      <point x="625.413" y="38.6233"/>
      <point x="504" y="-18"/>
      <point x="376.458" y="-18" type="curve" smooth="yes"/>
      <point x="150.525" y="-18"/>
      <point x="48" y="107"/>
      <point x="48" y="377.786" type="curve" smooth="yes"/>
      <point x="48" y="651"/>
      <point x="135.951" y="760"/>
      <point x="396.292" y="760" type="curve" smooth="yes"/>
      <point x="502" y="760"/>
      <point x="587.758" y="750"/>
      <point x="673.641" y="691.411" type="curve"/>
      <point x="649" y="445" type="line"/>
      <point x="529.003" y="445" type="line"/>
      <point x="492.003" y="658" type="line"/>
      <point x="584" y="553.634" type="line"/>
      <point x="529.003" y="599.776"/>
      <point x="470" y="611.634"/>
      <point x="385.474" y="611.634" type="curve" smooth="yes"/>
      <point x="259" y="611.634"/>
      <point x="205" y="557"/>
      <point x="205" y="427" type="curve" smooth="yes"/>
      <point x="205" y="223.822"/>
      <point x="243.001" y="151"/>
      <point x="381" y="151" type="curve" smooth="yes"/>
      <point x="479.002" y="151"/>
      <point x="529.003" y="169"/>
      <point x="587" y="224" type="curve"/>
    </contour>
  </outline>
</glyph>
<glyph name="D" format="2">
  <advance width="760"/>
  <unicode hex="0044"/>
  <outline>
    <contour>
      <point x="323" y="-1" type="line" smooth="yes"/>
      <point x="597" y="-1.93836"/>
      <point x="731.2" y="103.955"/>
      <point x="731.2" y="369.955" type="curve" smooth="yes"/>
      <point x="731.2" y="637.955"/>
      <point x="601" y="740"/>
      <point x="333" y="740" type="curve" smooth="yes"/>
      <point x="31" y="740" type="line"/>
      <point x="31" y="588" type="line"/>
      <point x="168" y="588" type="line"/>
      <point x="105" y="624" type="line"/>
      <point x="105" y="152" type="line"/>
      <point x="140.392" y="198.43" type="line"/>
      <point x="31" y="152" type="line"/>
      <point x="31" y="0" type="line"/>
    </contour>
    <contour>
      <point x="313" y="590" type="line" smooth="yes"/>
      <point x="507.986" y="592.671"/>
      <point x="564" y="540"/>
      <point x="564" y="352" type="curve" smooth="yes"/>
      <point x="564" y="190.545"/>
      <point x="507.996" y="154.361"/>
      <point x="312" y="152" type="curve" smooth="yes"/>
      <point x="229" y="151" type="line"/>
      <point x="262" y="123" type="line"/>
      <point x="262" y="633" type="line"/>
      <point x="240" y="589" type="line"/>
    </contour>
  </outline>
</glyph>
<glyph name="E" format="2">
  <advance width="669"/>
  <unicode hex="0045"/>
  <outline>
    <contour>
      <point x="215" y="314" type="line"/>
      <point x="215" y="433" type="line"/>
      <point x="485" y="412" type="line"/>
      <point x="485" y="327" type="line"/>
    </contour>
    <contour>
      <point x="504" y="76" type="line"/>
      <point x="541" y="260" type="line"/>
      <point x="634" y="260" type="line"/>
      <point x="634" y="0" type="line"/>
      <point x="37" y="0" type="line"/>
      <point x="37" y="152" type="line"/>
      <point x="152.95" y="199" type="line"/>
      <point x="111" y="78" type="line"/>
      <point x="111" y="602.043" type="line"/>
      <point x="141" y="572.043" type="line"/>
      <point x="37" y="572.043" type="line"/>
      <point x="37" y="740" type="line"/>
      <point x="620" y="740" type="line"/>
      <point x="612" y="458.043" type="line"/>
      <point x="519" y="458.043" type="line"/>
      <point x="502" y="610.043" type="line"/>
      <point x="535" y="578.043" type="line"/>
      <point x="237" y="578.043" type="line"/>
      <point x="268" y="615.043" type="line"/>
      <point x="268" y="80" type="line"/>
      <point x="248.567" y="168" type="line"/>
      <point x="546.567" y="168" type="line"/>
    </contour>
  </outline>
  <guideline angle="0" x="0" y="260"/>
</glyph>
<glyph name="F" format="2">
  <advance width="654"/>
  <unicode hex="0046"/>
  <outline>
    <contour>
      <point x="213" y="314" type="line"/>
      <point x="213" y="433" type="line"/>
      <point x="494" y="412" type="line"/>
      <point x="494" y="327" type="line"/>
    </contour>
    <contour>
      <point x="403" y="0" type="line"/>
      <point x="35" y="0" type="line"/>
      <point x="35" y="152" type="line"/>
      <point x="147.895" y="200.673" type="line"/>
      <point x="109" y="142" type="line"/>
      <point x="109" y="603" type="line"/>
      <point x="139" y="573" type="line"/>
      <point x="35" y="573" type="line"/>
      <point x="35" y="740" type="line"/>
      <point x="620" y="740" type="line"/>
      <point x="612" y="458" type="line"/>
      <point x="532" y="458" type="line"/>
      <point x="501" y="611" type="line"/>
      <point x="543" y="579" type="line"/>
      <point x="235" y="579" type="line"/>
      <point x="266" y="616" type="line"/>
      <point x="266" y="132" type="line"/>
      <point x="225.249" y="191.704" type="line"/>
      <point x="403" y="152" type="line"/>
    </contour>
  </outline>
</glyph>
<glyph name="G" format="2">
  <advance width="758"/>
  <unicode hex="0047"/>
  <outline>
    <contour>
      <point x="526.238" y="91.9694" type="line"/>
      <point x="526.238" y="323.969" type="line"/>
      <point x="583.223" y="260.103" type="line"/>
      <point x="385.112" y="268.103" type="line"/>
      <point x="385.112" y="377.786" type="line"/>
      <point x="683" y="387.786" type="line"/>
      <point x="683" y="148" type="line"/>
      <point x="644" y="48"/>
      <point x="539" y="-18"/>
      <point x="379.923" y="-18" type="curve" smooth="yes"/>
      <point x="161" y="-18"/>
      <point x="49" y="107"/>
      <point x="49" y="377.667" type="curve" smooth="yes"/>
      <point x="49" y="651"/>
      <point x="163" y="760"/>
      <point x="403" y="760" type="curve"/>
      <point x="505" y="760"/>
      <point x="596.865" y="740"/>
      <point x="676" y="690.828" type="curve"/>
      <point x="650" y="495" type="line"/>
      <point x="530" y="495" type="line"/>
      <point x="491" y="658" type="line"/>
      <point x="587.897" y="557" type="line"/>
      <point x="532.897" y="590"/>
      <point x="473.897" y="615"/>
      <point x="401.043" y="615" type="curve" smooth="yes"/>
      <point x="261.897" y="615"/>
      <point x="206" y="523.805"/>
      <point x="206" y="427" type="curve" smooth="yes"/>
      <point x="206" y="223.784"/>
      <point x="260.967" y="149.126"/>
      <point x="391.249" y="149.126" type="curve" smooth="yes"/>
      <point x="469.596" y="149.126"/>
      <point x="521.596" y="176.126"/>
      <point x="566.596" y="214.126" type="curve"/>
    </contour>
  </outline>
</glyph>
<glyph name="H" format="2">
  <advance width="844"/>
  <unicode hex="0048"/>
  <outline>
    <contour>
      <point x="233" y="289" type="line"/>
      <point x="233" y="435" type="line"/>
      <point x="623" y="435" type="line"/>
      <point x="623" y="289" type="line"/>
    </contour>
    <contour>
      <point x="277" y="610.143" type="line"/>
      <point x="277" y="81" type="line"/>
      <point x="219.738" y="207.399" type="line"/>
      <point x="360" y="152.037" type="line"/>
      <point x="360" y="0" type="line"/>
      <point x="46" y="0" type="line"/>
      <point x="46" y="152" type="line"/>
      <point x="156.477" y="198.43" type="line"/>
      <point x="120" y="89" type="line"/>
      <point x="120" y="602.143" type="line"/>
      <point x="163.628" y="540" type="line"/>
      <point x="46" y="587.845" type="line"/>
      <point x="46" y="740" type="line"/>
      <point x="360" y="740" type="line"/>
      <point x="360" y="588.143" type="line"/>
      <point x="247.484" y="544.843" type="line"/>
    </contour>
    <contour>
      <point x="720" y="626.962" type="line"/>
      <point x="720" y="140.888" type="line"/>
      <point x="671.251" y="207.399" type="line"/>
      <point x="794" y="151.888" type="line"/>
      <point x="794" y="0" type="line"/>
      <point x="505" y="0" type="line"/>
      <point x="505" y="151.888" type="line"/>
      <point x="613.235" y="196.188" type="line"/>
      <point x="588" y="152.888" type="line"/>
      <point x="588" y="619.962" type="line"/>
      <point x="623" y="544.843" type="line"/>
      <point x="505" y="587.962" type="line"/>
      <point x="505" y="740" type="line"/>
      <point x="794" y="740" type="line"/>
      <point x="794" y="588.962" type="line"/>
      <point x="676.296" y="538.466" type="line"/>
    </contour>
  </outline>
</glyph>
<glyph name="I" format="2">
  <advance width="423"/>
  <unicode hex="0049"/>
  <outline>
    <contour>
      <point x="290" y="99.5868" type="line"/>
      <point x="239.169" y="198.43" type="line"/>
      <point x="394" y="152" type="line"/>
      <point x="394" y="0" type="line"/>
      <point x="29" y="0" type="line"/>
      <point x="29" y="152.037" type="line"/>
      <point x="178.294" y="195.067" type="line"/>
      <point x="133" y="111.587" type="line"/>
      <point x="133" y="620" type="line"/>
      <point x="181.657" y="544.843" type="line"/>
      <point x="29" y="588" type="line"/>
      <point x="29" y="740" type="line"/>
      <point x="394" y="740" type="line"/>
      <point x="394" y="588" type="line"/>
      <point x="268" y="551" type="line"/>
      <point x="290" y="606" type="line"/>
    </contour>
  </outline>
</glyph>
<glyph name="J" format="2">
  <advance width="542"/>
  <unicode hex="004A"/>
  <outline>
    <contour>
      <point x="5" y="26" type="line"/>
      <point x="74.5328" y="-4.23163"/>
      <point x="137" y="-18"/>
      <point x="204.261" y="-18" type="curve" smooth="yes"/>
      <point x="357" y="-18"/>
      <point x="408" y="53"/>
      <point x="408" y="243" type="curve" smooth="yes"/>
      <point x="408" y="693" type="line"/>
      <point x="373.804" y="549.327" type="line"/>
      <point x="532.917" y="591" type="line"/>
      <point x="533" y="740" type="line"/>
      <point x="123" y="740" type="line"/>
      <point x="123.162" y="588" type="line"/>
      <point x="332.832" y="540" type="line"/>
      <point x="248.904" y="686" type="line"/>
      <point x="248.904" y="266.817" type="line" smooth="yes"/>
      <point x="248.904" y="181.296"/>
      <point x="208.107" y="157.005"/>
      <point x="164.263" y="157.086" type="curve" smooth="yes"/>
      <point x="121.322" y="157.164"/>
      <point x="75.4584" y="180.621"/>
      <point x="62.1452" y="192.825" type="curve"/>
    </contour>
  </outline>
</glyph>
<glyph name="K" format="2">
  <advance width="823"/>
  <unicode hex="004B"/>
  <outline>
    <contour>
      <point x="339" y="152" type="line"/>
      <point x="256" y="184" type="line"/>
      <point x="256" y="558.295" type="line"/>
      <point x="339" y="590" type="line"/>
      <point x="339" y="740" type="line"/>
      <point x="25" y="740" type="line"/>
      <point x="25" y="588" type="line"/>
      <point x="99.2803" y="557.175" type="line"/>
      <point x="99" y="184" type="line"/>
      <point x="25" y="152" type="line"/>
      <point x="25" y="0" type="line"/>
      <point x="339" y="0" type="line"/>
    </contour>
    <contour>
      <point x="248" y="228" type="line"/>
      <point x="686.724" y="557" type="line"/>
      <point x="762" y="588" type="line"/>
      <point x="762" y="740" type="line"/>
      <point x="453" y="740" type="line"/>
      <point x="453" y="589.024" type="line"/>
      <point x="496.72" y="563.043" type="line"/>
      <point x="248.25" y="395.808" type="line"/>
    </contour>
    <contour>
      <point x="341" y="353" type="line"/>
      <point x="567" y="0" type="line"/>
      <point x="763" y="0" type="line"/>
      <point x="763" y="152" type="line"/>
      <point x="659.818" y="184" type="line"/>
      <point x="465.872" y="460.762" type="line"/>
    </contour>
  </outline>
</glyph>
<glyph name="L" format="2">
  <advance width="637"/>
  <unicode hex="004C"/>
  <outline>
    <contour>
      <point x="230.393" y="169" type="line"/>
      <point x="539.51" y="169" type="line"/>
      <point x="420.037" y="38.4695" type="line"/>
      <point x="480.391" y="279" type="line"/>
      <point x="600" y="279" type="line"/>
      <point x="600" y="0" type="line"/>
      <point x="39" y="0" type="line"/>
      <point x="39" y="152.009" type="line"/>
      <point x="157.523" y="199" type="line"/>
      <point x="113" y="85" type="line"/>
      <point x="113" y="624" type="line"/>
      <point x="175.46" y="533.632" type="line"/>
      <point x="39" y="588" type="line"/>
      <point x="39" y="740" type="line"/>
      <point x="424" y="740" type="line"/>
      <point x="424" y="588" type="line"/>
      <point x="231.514" y="549.327" type="line"/>
      <point x="270" y="674" type="line"/>
      <point x="270" y="98.4013" type="line"/>
    </contour>
  </outline>
  <guideline angle="0" x="0" y="674"/>
</glyph>
<glyph name="M" format="2">
  <advance width="1060"/>
  <unicode hex="004D"/>
  <outline>
    <contour>
      <point x="800" y="630" type="line"/>
      <point x="786" y="630" type="line"/>
      <point x="786" y="184" type="line"/>
      <point x="715" y="152" type="line"/>
      <point x="715" y="0" type="line"/>
      <point x="1010" y="0" type="line"/>
      <point x="1010" y="152" type="line"/>
      <point x="936" y="184" type="line"/>
      <point x="936" y="559" type="line"/>
      <point x="1010" y="588" type="line"/>
      <point x="1010" y="740" type="line"/>
      <point x="678" y="740" type="line"/>
      <point x="461.717" y="23.1122" type="line"/>
      <point x="595.126" y="22.0405" type="line"/>
      <point x="377" y="740" type="line"/>
      <point x="45" y="740" type="line"/>
      <point x="45" y="588" type="line"/>
      <point x="119" y="557" type="line"/>
      <point x="119" y="184" type="line"/>
      <point x="45" y="152.06" type="line"/>
      <point x="45" y="0" type="line"/>
      <point x="339" y="0" type="line"/>
      <point x="339" y="152.006" type="line"/>
      <point x="268" y="184" type="line"/>
      <point x="268" y="630" type="line"/>
      <point x="254" y="630" type="line"/>
      <point x="460.596" y="0.605408" type="line"/>
      <point x="602.231" y="0" type="line"/>
    </contour>
  </outline>
</glyph>
<glyph name="N" format="2">
  <advance width="876"/>
  <unicode hex="004E"/>
  <outline>
    <contour>
      <point x="533" y="-1" type="line"/>
      <point x="225" y="656" type="line"/>
      <point x="260" y="649" type="line"/>
      <point x="260" y="144" type="line"/>
      <point x="208.945" y="206.194" type="line"/>
      <point x="331" y="151" type="line"/>
      <point x="331" y="0" type="line"/>
      <point x="36" y="0" type="line"/>
      <point x="36" y="151" type="line"/>
      <point x="158.337" y="206.194" type="line"/>
      <point x="110" y="152" type="line"/>
      <point x="110" y="666" type="line"/>
      <point x="164.729" y="534.739" type="line"/>
      <point x="36" y="588.971" type="line"/>
      <point x="36" y="740" type="line"/>
      <point x="368" y="740" type="line"/>
      <point x="654" y="129" type="line"/>
      <point x="624" y="124" type="line"/>
      <point x="624" y="621" type="line"/>
      <point x="690.846" y="531.39" type="line"/>
      <point x="541" y="589" type="line"/>
      <point x="541" y="740" type="line"/>
      <point x="848" y="740" type="line"/>
      <point x="848" y="588.864" type="line"/>
      <point x="725" y="534.739" type="line"/>
      <point x="774" y="628" type="line"/>
      <point x="774" y="-1" type="line"/>
    </contour>
  </outline>
</glyph>
<glyph name="O" format="2">
  <advance width="713"/>
  <unicode hex="004F"/>
  <outline>
    <contour>
      <point x="352" y="-18" type="curve" smooth="yes"/>
      <point x="131" y="-18"/>
      <point x="31" y="105"/>
      <point x="31" y="375" type="curve" smooth="yes"/>
      <point x="31" y="650"/>
      <point x="135" y="759"/>
      <point x="362" y="759" type="curve" smooth="yes"/>
      <point x="584" y="759"/>
      <point x="684" y="634"/>
      <point x="684" y="364" type="curve" smooth="yes"/>
      <point x="684" y="89"/>
      <point x="580" y="-18"/>
    </contour>
    <contour>
      <point x="362" y="573.991" type="curve" smooth="yes"/>
      <point x="218.485" y="573.991"/>
      <point x="195.383" y="526.097"/>
      <point x="195.383" y="364" type="curve" smooth="yes"/>
      <point x="195.383" y="230.942"/>
      <point x="231.608" y="168.161"/>
      <point x="349.899" y="168.161" type="curve" smooth="yes"/>
      <point x="510.179" y="168.161"/>
      <point x="520.137" y="242.279"/>
      <point x="520.137" y="363.226" type="curve" smooth="yes"/>
      <point x="520.137" y="540.054"/>
      <point x="476.553" y="573.991"/>
    </contour>
  </outline>
</glyph>
<glyph name="P" format="2">
  <advance width="684"/>
  <unicode hex="0050"/>
  <outline>
    <contour>
      <point x="343" y="588" type="curve"/>
      <point x="236" y="588" type="line"/>
      <point x="256" y="627" type="line"/>
      <point x="256" y="155" type="line"/>
      <point x="215.148" y="195.067" type="line"/>
      <point x="367" y="152" type="line"/>
      <point x="367" y="0" type="line"/>
      <point x="25" y="0" type="line"/>
      <point x="25" y="152" type="line"/>
      <point x="141.157" y="198.43" type="line"/>
      <point x="99" y="163" type="line"/>
      <point x="99" y="624" type="line"/>
      <point x="187" y="588" type="line"/>
      <point x="25" y="588" type="line"/>
      <point x="25" y="740" type="line"/>
      <point x="345" y="740" type="line"/>
      <point x="559" y="740"/>
      <point x="643" y="669"/>
      <point x="643" y="483.453" type="curve" smooth="yes"/>
      <point x="643" y="299"/>
      <point x="560" y="249"/>
      <point x="313" y="249" type="curve" smooth="yes"/>
      <point x="232" y="249" type="line"/>
      <point x="232" y="384" type="line"/>
      <point x="311" y="384" type="line" smooth="yes"/>
      <point x="474" y="384"/>
      <point x="486.448" y="421.525"/>
      <point x="486.448" y="500" type="curve" smooth="yes"/>
      <point x="486.448" y="568"/>
      <point x="446.639" y="588"/>
    </contour>
  </outline>
</glyph>
<glyph name="Q" format="2">
  <advance width="758"/>
  <unicode hex="0051"/>
  <outline>
    <component base="O" xOffset="-17" yOffset="-1"/>
    <contour>
      <point x="292.117" y="10.4991" type="line"/>
      <point x="434.095" y="10.5" type="line"/>
      <point x="434.095" y="-31.3893" type="line" smooth="yes"/>
      <point x="434.095" y="-86.7278"/>
      <point x="469.492" y="-103.622"/>
      <point x="517.691" y="-103.621" type="curve" smooth="yes"/>
      <point x="557.372" y="-103.62"/>
      <point x="605.73" y="-92.1678"/>
      <point x="650.154" y="-81.2895" type="curve"/>
      <point x="684.493" y="-183.857" type="line"/>
      <point x="609.493" y="-208.857"/>
      <point x="535.757" y="-224.215"/>
      <point x="484.942" y="-224.215" type="curve" smooth="yes"/>
      <point x="380.757" y="-224.215"/>
      <point x="292.117" y="-162.557"/>
      <point x="292.117" y="-39.2377" type="curve"/>
    </contour>
  </outline>
</glyph>
<glyph name="R" format="2">
  <advance width="662"/>
  <unicode hex="0052"/>
  <outline>
    <contour>
      <point x="439.84" y="75.9586" type="line"/>
      <point x="293.795" y="320.977" type="line"/>
      <point x="465.073" y="337.897" type="line"/>
      <point x="622.073" y="73.8969" type="line"/>
      <point x="505.648" y="198.425" type="line"/>
      <point x="662" y="152" type="line"/>
      <point x="662" y="0" type="line"/>
      <point x="362.935" y="0" type="line"/>
      <point x="362.935" y="152.414" type="line"/>
      <point x="444.061" y="152" type="line"/>
    </contour>
    <contour>
      <point x="217" y="62" type="line"/>
      <point x="179.879" y="196.9" type="line"/>
      <point x="299.879" y="156.9" type="line"/>
      <point x="300" y="0" type="line"/>
      <point x="-13.2152" y="0" type="line"/>
      <point x="-13.2152" y="152" type="line"/>
      <point x="105.417" y="204.036" type="line"/>
      <point x="60.3587" y="63.1218" type="line"/>
      <point x="60.3587" y="679.122" type="line"/>
      <point x="94.7848" y="545.257" type="line"/>
      <point x="-13.2152" y="586.257" type="line"/>
      <point x="-13.2152" y="740" type="line"/>
      <point x="401" y="740" type="line" smooth="yes"/>
      <point x="565" y="740"/>
      <point x="626.188" y="660.188"/>
      <point x="626.188" y="507.188" type="curve" smooth="yes"/>
      <point x="626.188" y="348.428"/>
      <point x="541" y="286"/>
      <point x="378" y="286" type="curve" smooth="yes"/>
      <point x="182" y="286" type="line"/>
      <point x="182" y="406.402" type="line"/>
      <point x="321.346" y="406.402" type="line" smooth="yes"/>
      <point x="383.484" y="406.402"/>
      <point x="455" y="406.402"/>
      <point x="455" y="493.274" type="curve" smooth="yes"/>
      <point x="455" y="579.38"/>
      <point x="402.727" y="587.695"/>
      <point x="332.744" y="587.695" type="curve" smooth="yes"/>
      <point x="183" y="587.695" type="line"/>
      <point x="217" y="678" type="line"/>
    </contour>
  </outline>
</glyph>
<glyph name="S" format="2">
  <advance width="653"/>
  <unicode hex="0053"/>
  <outline>
    <contour>
      <point x="475.843" y="494.548" type="line"/>
      <point x="595.747" y="494.548" type="line"/>
      <point x="605.747" y="709.315" type="line"/>
      <point x="534.654" y="745.926"/>
      <point x="436.205" y="759"/>
      <point x="357" y="759" type="curve" smooth="yes"/>
      <point x="212" y="759"/>
      <point x="53.9821" y="735"/>
      <point x="53.9821" y="546.094" type="curve" smooth="yes"/>
      <point x="53.9821" y="365.991"/>
      <point x="197.617" y="329.386"/>
      <point x="314.114" y="299.681" type="curve" smooth="yes"/>
      <point x="393.583" y="279.417"/>
      <point x="460.423" y="262.363"/>
      <point x="460.423" y="205.157" type="curve"/>
      <point x="460.423" y="152"/>
      <point x="439.043" y="139.013"/>
      <point x="324" y="139.013" type="curve" smooth="yes"/>
      <point x="247.563" y="139.013"/>
      <point x="208.307" y="159.631"/>
      <point x="165.569" y="182.102" type="curve" smooth="yes"/>
      <point x="130.119" y="200" type="line"/>
      <point x="186.528" y="101" type="line"/>
      <point x="179.461" y="274.833" type="line"/>
      <point x="56.8223" y="282.024" type="line"/>
      <point x="45.8888" y="68.1918" type="line"/>
      <point x="125.168" y="17.0346"/>
      <point x="229.245" y="-18"/>
      <point x="324" y="-18" type="curve" smooth="yes"/>
      <point x="471.636" y="-18"/>
      <point x="611.845" y="35.157"/>
      <point x="611.845" y="211.699" type="curve" smooth="yes"/>
      <point x="611.845" y="381.897"/>
      <point x="481.534" y="408.442"/>
      <point x="369.389" y="431.309" type="curve" smooth="yes"/>
      <point x="247.533" y="456.155"/>
      <point x="210.348" y="480.898"/>
      <point x="210.348" y="534.822" type="curve" smooth="yes"/>
      <point x="210.348" y="596.511"/>
      <point x="259.013" y="601.865"/>
      <point x="355.119" y="601.865" type="curve" smooth="yes"/>
      <point x="428.195" y="601.865"/>
      <point x="485.164" y="588"/>
      <point x="546.823" y="548.206" type="curve"/>
      <point x="427.398" y="711.883" type="line"/>
    </contour>
  </outline>
  <guideline angle="0" x="0" y="-18"/>
  <guideline angle="0" x="0" y="758"/>
</glyph>
<glyph name="T" format="2">
  <advance width="774"/>
  <unicode hex="0054"/>
  <outline>
    <contour>
      <point x="656.847" y="578" type="line"/>
      <point x="606.484" y="661" type="line"/>
      <point x="622.484" y="445" type="line"/>
      <point x="732" y="445" type="line"/>
      <point x="745" y="740" type="line"/>
      <point x="24" y="740" type="line"/>
      <point x="37" y="445" type="line"/>
      <point x="146.873" y="445" type="line"/>
      <point x="162.873" y="661" type="line"/>
      <point x="110.363" y="578" type="line"/>
    </contour>
    <contour>
      <point x="306" y="671" type="line"/>
      <point x="306" y="76" type="line"/>
      <point x="336" y="191" type="line"/>
      <point x="182" y="152" type="line"/>
      <point x="182" y="0" type="line"/>
      <point x="587" y="0" type="line"/>
      <point x="587" y="152" type="line"/>
      <point x="429.532" y="191" type="line"/>
      <point x="463" y="76" type="line"/>
      <point x="463" y="671" type="line"/>
    </contour>
  </outline>
</glyph>
<glyph name="U" format="2">
  <advance width="800"/>
  <unicode hex="0055"/>
  <outline>
    <contour>
      <point x="591" y="105" type="line"/>
      <point x="606" y="183" type="line"/>
      <point x="581.683" y="316.143" type="line"/>
      <point x="529.683" y="260.143"/>
      <point x="507.692" y="152.174"/>
      <point x="368.679" y="152.174" type="curve"/>
      <point x="235.679" y="152.174"/>
      <point x="219" y="227.201"/>
      <point x="219" y="335.201" type="curve"/>
      <point x="219" y="595" type="line"/>
      <point x="190" y="548" type="line"/>
      <point x="302" y="588" type="line"/>
      <point x="302" y="740" type="line"/>
      <point x="-8" y="740" type="line"/>
      <point x="-8" y="588" type="line"/>
      <point x="96" y="547" type="line"/>
      <point x="66" y="596" type="line"/>
      <point x="66" y="229" type="line"/>
      <point x="66" y="30.1897"/>
      <point x="139.979" y="-18"/>
      <point x="298" y="-18" type="curve" smooth="yes"/>
      <point x="441.176" y="-18"/>
      <point x="465.138" y="2.90275"/>
      <point x="500" y="105" type="curve"/>
    </contour>
    <contour>
      <point x="766" y="152.174" type="line"/>
      <point x="654.553" y="200.673" type="line"/>
      <point x="692" y="80" type="line"/>
      <point x="692" y="598" type="line"/>
      <point x="663" y="546" type="line"/>
      <point x="766" y="588" type="line"/>
      <point x="766" y="740" type="line"/>
      <point x="456" y="740" type="line"/>
      <point x="456" y="588" type="line"/>
      <point x="569" y="548" type="line"/>
      <point x="539" y="596" type="line"/>
      <point x="539" y="0" type="line"/>
      <point x="766" y="0" type="line"/>
    </contour>
  </outline>
  <guideline angle="0" x="0" y="105"/>
</glyph>
<glyph name="V" format="2">
  <advance width="824"/>
  <unicode hex="0056"/>
  <outline>
    <contour>
      <point x="55.9355" y="599.134" type="line"/>
      <point x="119.579" y="540" type="line"/>
      <point x="10" y="588" type="line"/>
      <point x="9.9982" y="740.488" type="line"/>
      <point x="298.998" y="740.488" type="line"/>
      <point x="298.998" y="588.488" type="line"/>
      <point x="180.117" y="540" type="line"/>
      <point x="217.241" y="604.329" type="line"/>
      <point x="448.538" y="61.6592" type="line"/>
      <point x="362.51" y="57.8613" type="line"/>
      <point x="590.521" y="620" type="line"/>
      <point x="602.388" y="551" type="line"/>
      <point x="516" y="588" type="line"/>
      <point x="515.998" y="740.488" type="line"/>
      <point x="804.998" y="740.488" type="line"/>
      <point x="804.998" y="588.488" type="line"/>
      <point x="690.207" y="544.843" type="line"/>
      <point x="743.998" y="598.488" type="line"/>
      <point x="488.547" y="0.1518" type="line"/>
      <point x="311.547" y="0.1518" type="line"/>
    </contour>
  </outline>
  <guideline angle="0" x="0" y="630"/>
  <guideline angle="0" x="0" y="129"/>
</glyph>
<glyph name="W" format="2">
  <advance width="1140"/>
  <unicode hex="0057"/>
  <outline>
    <contour>
      <point x="219.562" y="686.894" type="line"/>
      <point x="70.824" y="669" type="line"/>
      <point x="211.824" y="0" type="line"/>
      <point x="435" y="0" type="line"/>
      <point x="580.047" y="533.632" type="line"/>
      <point x="570.047" y="533.632" type="line"/>
      <point x="728" y="0" type="line"/>
      <point x="932.954" y="0" type="line"/>
      <point x="1074.95" y="677" type="line"/>
      <point x="927.137" y="684.052" type="line"/>
      <point x="812.11" y="163.677" type="line"/>
      <point x="671.975" y="690.583" type="line"/>
      <point x="469.061" y="691" type="line"/>
      <point x="330.532" y="164.798" type="line"/>
    </contour>
    <contour>
      <point x="191.168" y="539.238" type="line"/>
      <point x="314" y="588" type="line"/>
      <point x="314" y="740" type="line"/>
      <point x="22" y="740" type="line"/>
      <point x="22" y="588" type="line"/>
      <point x="173.231" y="547.085" type="line"/>
    </contour>
    <contour>
      <point x="946.639" y="545.964" type="line"/>
      <point x="980.193" y="547.116" type="line"/>
      <point x="1118" y="587.967" type="line"/>
      <point x="1118" y="740" type="line"/>
      <point x="843" y="740" type="line"/>
      <point x="843" y="587.967" type="line"/>
    </contour>
  </outline>
</glyph>
<glyph name="X" format="2">
  <advance width="771"/>
  <unicode hex="0058"/>
  <outline>
    <contour>
      <point x="307" y="284.357" type="line"/>
      <point x="329" y="435.642" type="line"/>
      <point x="436" y="435.642" type="line"/>
      <point x="457" y="284.357" type="line"/>
    </contour>
    <contour>
      <point x="42.1994" y="105.764" type="line"/>
      <point x="253.774" y="411" type="line"/>
      <point x="387" y="384" type="line"/>
      <point x="591" y="697" type="line"/>
      <point x="732.262" y="651.511" type="line"/>
      <point x="509.06" y="318" type="line"/>
      <point x="381" y="344.353" type="line"/>
      <point x="175" y="45.3529" type="line"/>
    </contour>
    <contour>
      <point x="740" y="80.3689" type="line"/>
      <point x="594" y="27" type="line"/>
      <point x="387" y="329" type="line"/>
      <point x="283.676" y="272.38" type="line"/>
      <point x="41.6755" y="640.38" type="line"/>
      <point x="168" y="723" type="line"/>
      <point x="381" y="397" type="line"/>
      <point x="518.669" y="401.359" type="line"/>
    </contour>
    <contour>
      <point x="539.798" y="221.89" type="line"/>
      <point x="608.557" y="208.437" type="line"/>
      <point x="750" y="152.001" type="line"/>
      <point x="750" y="0" type="line"/>
      <point x="445" y="0" type="line"/>
      <point x="445" y="152.221" type="line"/>
    </contour>
    <contour>
      <point x="184" y="242.817" type="line"/>
      <point x="323" y="151.995" type="line"/>
      <point x="323" y="0" type="line"/>
      <point x="18" y="0" type="line"/>
      <point x="18" y="151.995" type="line"/>
      <point x="143.684" y="200.963" type="line"/>
    </contour>
    <contour>
      <point x="260.897" y="550" type="line"/>
      <point x="141" y="550" type="line"/>
      <point x="28" y="588" type="line"/>
      <point x="28" y="740" type="line"/>
      <point x="333" y="740" type="line"/>
      <point x="333" y="588" type="line"/>
    </contour>
    <contour>
      <point x="602" y="543" type="line"/>
      <point x="435" y="588" type="line"/>
      <point x="435" y="740" type="line"/>
      <point x="740" y="740" type="line"/>
      <point x="740" y="588" type="line"/>
      <point x="637.546" y="540" type="line"/>
    </contour>
  </outline>
</glyph>
<glyph name="Y" format="2">
  <advance width="813"/>
  <unicode hex="0059"/>
  <outline>
    <contour>
      <point x="484.861" y="329" type="line"/>
      <point x="484.861" y="59" type="line"/>
      <point x="425" y="200.963" type="line"/>
      <point x="605" y="152.001" type="line"/>
      <point x="605" y="0" type="line"/>
      <point x="220" y="0" type="line"/>
      <point x="220" y="152.001" type="line"/>
      <point x="387" y="208.437" type="line"/>
      <point x="326" y="58" type="line"/>
      <point x="326" y="329" type="line"/>
    </contour>
    <contour>
      <point x="635" y="675" type="line"/>
      <point x="779.672" y="640.538" type="line"/>
      <point x="476.938" y="242.817" type="line"/>
      <point x="339.419" y="248.796" type="line"/>
      <point x="37" y="646.406" type="line"/>
      <point x="198" y="671" type="line"/>
      <point x="404" y="413.974" type="line"/>
      <point x="429" y="413.974" type="line"/>
    </contour>
    <contour>
      <point x="159" y="544.949" type="line"/>
      <point x="136" y="549.949" type="line"/>
      <point x="23" y="587.949" type="line"/>
      <point x="23" y="740" type="line"/>
      <point x="317" y="740" type="line"/>
      <point x="317" y="587.949" type="line"/>
    </contour>
    <contour>
      <point x="663" y="547.099" type="line"/>
      <point x="498" y="588.099" type="line"/>
      <point x="498" y="740" type="line"/>
      <point x="793" y="740" type="line"/>
      <point x="793" y="588.099" type="line"/>
      <point x="680" y="548.099" type="line"/>
    </contour>
  </outline>
</glyph>
<glyph name="Z" format="2">
  <advance width="647"/>
  <unicode hex="005A"/>
  <outline>
    <contour>
      <point x="51" y="740" type="line"/>
      <point x="61" y="506" type="line"/>
      <point x="171.622" y="506.007" type="line"/>
      <point x="183.622" y="691.007" type="line"/>
      <point x="107.999" y="588" type="line"/>
      <point x="476.999" y="588" type="line"/>
      <point x="467.294" y="653.587" type="line"/>
      <point x="43.6286" y="152" type="line"/>
      <point x="44" y="0" type="line"/>
      <point x="621" y="0" type="line"/>
      <point x="621" y="279" type="line"/>
      <point x="503.168" y="279.148" type="line"/>
      <point x="456.083" y="53.8117" type="line"/>
      <point x="597.022" y="169" type="line"/>
      <point x="241.957" y="169" type="line"/>
      <point x="609.624" y="609" type="line"/>
      <point x="609.624" y="740" type="line"/>
    </contour>
    <contour>
      <point x="139" y="20" type="line"/>
      <point x="139" y="134" type="line"/>
      <point x="56" y="127" type="line"/>
      <point x="56" y="13" type="line"/>
    </contour>
  </outline>
</glyph>
<glyph name="a" format="2">
  <advance width="577"/>
  <unicode hex="0061"/>
  <outline>
    <contour>
      <point x="17" y="154" type="curve" smooth="yes"/>
      <point x="17" y="39"/>
      <point x="71" y="-18"/>
      <point x="181" y="-18" type="curve" smooth="yes"/>
      <point x="286" y="-18"/>
      <point x="315" y="9"/>
      <point x="315" y="105" type="curve"/>
      <point x="288" y="70" type="line"/>
      <point x="396" y="70" type="line"/>
      <point x="396" y="70"/>
      <point x="381" y="162"/>
      <point x="381" y="162" type="curve"/>
      <point x="362" y="132"/>
      <point x="304" y="111"/>
      <point x="252" y="111" type="curve" smooth="yes"/>
      <point x="202" y="111"/>
      <point x="179" y="126"/>
      <point x="179" y="163" type="curve" smooth="yes"/>
      <point x="179" y="210"/>
      <point x="197" y="223"/>
      <point x="246" y="223" type="curve" smooth="yes"/>
      <point x="282" y="223"/>
      <point x="323" y="219"/>
      <point x="372" y="192" type="curve"/>
      <point x="355" y="232" type="line"/>
      <point x="333" y="325"/>
      <point x="266" y="327"/>
      <point x="197" y="327" type="curve" smooth="yes"/>
      <point x="73" y="327"/>
      <point x="17" y="276"/>
    </contour>
    <contour>
      <point x="349" y="0" type="line"/>
      <point x="566" y="0" type="line"/>
      <point x="566" y="152" type="line"/>
      <point x="479" y="202" type="line"/>
      <point x="512" y="81" type="line"/>
      <point x="512" y="333" type="line" smooth="yes"/>
      <point x="512" y="488"/>
      <point x="447" y="558"/>
      <point x="287" y="558" type="curve" smooth="yes"/>
      <point x="187" y="558"/>
      <point x="115" y="542"/>
      <point x="45" y="503" type="curve"/>
      <point x="75" y="370" type="line"/>
      <point x="121" y="385"/>
      <point x="173" y="390"/>
      <point x="229" y="390" type="curve" smooth="yes"/>
      <point x="312" y="390"/>
      <point x="349" y="378"/>
      <point x="349" y="306" type="curve" smooth="yes"/>
    </contour>
  </outline>
</glyph>
<glyph name="b" format="2">
  <advance width="642"/>
  <unicode hex="0062"/>
  <outline>
    <contour>
      <point x="429" y="-18" type="curve" smooth="yes"/>
      <point x="326" y="-18"/>
      <point x="296" y="17"/>
      <point x="277" y="144" type="curve"/>
      <point x="359" y="96" type="line"/>
      <point x="238" y="96" type="line"/>
      <point x="221" y="229" type="line"/>
      <point x="258" y="188"/>
      <point x="297" y="168"/>
      <point x="363" y="168" type="curve" smooth="yes"/>
      <point x="424" y="168"/>
      <point x="464" y="183"/>
      <point x="464" y="271" type="curve" smooth="yes"/>
      <point x="464" y="350"/>
      <point x="425" y="370"/>
      <point x="364" y="370" type="curve" smooth="yes"/>
      <point x="295" y="370"/>
      <point x="246" y="354"/>
      <point x="201" y="276" type="curve"/>
      <point x="233" y="435" type="line"/>
      <point x="355" y="435" type="line"/>
      <point x="283" y="387" type="line"/>
      <point x="285" y="507"/>
      <point x="341" y="546"/>
      <point x="435" y="546" type="curve" smooth="yes"/>
      <point x="579" y="546"/>
      <point x="619" y="454"/>
      <point x="619" y="264" type="curve" smooth="yes"/>
      <point x="619" y="59"/>
      <point x="560" y="-18"/>
    </contour>
    <contour>
      <point x="25" y="0" type="line"/>
      <point x="25" y="152" type="line"/>
      <point x="123" y="197" type="line"/>
      <point x="97" y="153" type="line"/>
      <point x="97" y="594" type="line"/>
      <point x="134" y="530" type="line"/>
      <point x="26" y="578" type="line"/>
      <point x="26" y="750" type="line"/>
      <point x="250" y="750" type="line"/>
      <point x="250" y="96" type="line"/>
      <point x="230" y="0" type="line"/>
    </contour>
  </outline>
</glyph>
<glyph name="c" format="2">
  <advance width="569"/>
  <unicode hex="0063"/>
  <outline>
    <contour>
      <point x="535" y="86" type="curve"/>
      <point x="477" y="194" type="line"/>
      <point x="425" y="173"/>
      <point x="404" y="167"/>
      <point x="314" y="167" type="curve" smooth="yes"/>
      <point x="227" y="167"/>
      <point x="191" y="200.726"/>
      <point x="191" y="270" type="curve" smooth="yes"/>
      <point x="191" y="345"/>
      <point x="225" y="372"/>
      <point x="294" y="372" type="curve"/>
      <point x="354" y="372"/>
      <point x="402" y="364"/>
      <point x="460" y="312" type="curve"/>
      <point x="355" y="432" type="line"/>
      <point x="370" y="267" type="line"/>
      <point x="517" y="267" type="line"/>
      <point x="529" y="486" type="line"/>
      <point x="491.69" y="527.237"/>
      <point x="428" y="558"/>
      <point x="294" y="558" type="curve" smooth="yes"/>
      <point x="111" y="558"/>
      <point x="39" y="478"/>
      <point x="39" y="275" type="curve" smooth="yes"/>
      <point x="39" y="97"/>
      <point x="103" y="-18"/>
      <point x="294" y="-18" type="curve" smooth="yes"/>
      <point x="407" y="-18"/>
      <point x="485" y="29"/>
    </contour>
  </outline>
</glyph>
<glyph name="d" format="2">
  <advance width="632"/>
  <unicode hex="0064"/>
  <outline>
    <contour>
      <point x="213" y="-18" type="curve" smooth="yes"/>
      <point x="316" y="-18"/>
      <point x="346" y="17"/>
      <point x="365" y="144" type="curve"/>
      <point x="283" y="96" type="line"/>
      <point x="404" y="96" type="line"/>
      <point x="421" y="229" type="line"/>
      <point x="384" y="188"/>
      <point x="345" y="168"/>
      <point x="279" y="168" type="curve" smooth="yes"/>
      <point x="218" y="168"/>
      <point x="178" y="183"/>
      <point x="178" y="271" type="curve" smooth="yes"/>
      <point x="178" y="342.02"/>
      <point x="217" y="360"/>
      <point x="278" y="360" type="curve" smooth="yes"/>
      <point x="347" y="360"/>
      <point x="399.54" y="347.864"/>
      <point x="441" y="276" type="curve"/>
      <point x="409" y="435" type="line"/>
      <point x="287" y="435" type="line"/>
      <point x="359" y="387" type="line"/>
      <point x="357.126" y="499.455"/>
      <point x="301" y="536"/>
      <point x="207" y="536" type="curve" smooth="yes"/>
      <point x="63" y="536"/>
      <point x="23" y="447.262"/>
      <point x="23" y="264" type="curve" smooth="yes"/>
      <point x="23" y="59"/>
      <point x="82" y="-18"/>
    </contour>
    <contour>
      <point x="617" y="0" type="line"/>
      <point x="617" y="152" type="line"/>
      <point x="518" y="197" type="line"/>
      <point x="545" y="155" type="line"/>
      <point x="545" y="740" type="line"/>
      <point x="304" y="740" type="line"/>
      <point x="304" y="578" type="line"/>
      <point x="419" y="536" type="line"/>
      <point x="392" y="578" type="line"/>
      <point x="392" y="96" type="line"/>
      <point x="412" y="0" type="line"/>
    </contour>
  </outline>
</glyph>
<glyph name="e" format="2">
  <advance width="595"/>
  <unicode hex="0065"/>
  <outline>
    <contour>
      <point x="322" y="-18" type="curve" smooth="yes"/>
      <point x="417" y="-18"/>
      <point x="477" y="-2"/>
      <point x="555" y="56" type="curve"/>
      <point x="513" y="190" type="line"/>
      <point x="442.542" y="169.16"/>
      <point x="386.679" y="160.011"/>
      <point x="326" y="162" type="curve" smooth="yes"/>
      <point x="221.999" y="165"/>
      <point x="189" y="171.644"/>
      <point x="189" y="290" type="curve" smooth="yes"/>
      <point x="189" y="362"/>
      <point x="214" y="412"/>
      <point x="307" y="412" type="curve" smooth="yes"/>
      <point x="405" y="412"/>
      <point x="414" y="369"/>
      <point x="405" y="270" type="curve"/>
      <point x="476" y="329" type="line"/>
      <point x="298" y="329" type="line" smooth="yes"/>
      <point x="261" y="329"/>
      <point x="246" y="318"/>
      <point x="235" y="239" type="curve"/>
      <point x="310" y="279" type="line"/>
      <point x="176" y="279" type="line"/>
      <point x="176" y="238" type="line"/>
      <point x="544" y="238" type="line"/>
      <point x="560.946" y="491.249"/>
      <point x="510" y="558"/>
      <point x="307" y="558" type="curve" smooth="yes"/>
      <point x="92" y="558"/>
      <point x="35" y="486"/>
      <point x="35" y="276" type="curve" smooth="yes"/>
      <point x="35" y="84"/>
      <point x="96" y="-18"/>
    </contour>
  </outline>
</glyph>
<glyph name="f" format="2">
  <advance width="502"/>
  <unicode hex="0066"/>
  <outline>
    <contour>
      <point x="40" y="0" type="line"/>
      <point x="440" y="0" type="line"/>
      <point x="440" y="163" type="line"/>
      <point x="241" y="207" type="line"/>
      <point x="286" y="143" type="line"/>
      <point x="286" y="515" type="line" smooth="yes"/>
      <point x="286" y="575"/>
      <point x="289" y="607"/>
      <point x="377" y="607" type="curve" smooth="yes"/>
      <point x="406" y="607"/>
      <point x="442" y="607"/>
      <point x="491" y="601" type="curve"/>
      <point x="512" y="741" type="line"/>
      <point x="463" y="757"/>
      <point x="379" y="770"/>
      <point x="335" y="770" type="curve" smooth="yes"/>
      <point x="211" y="770"/>
      <point x="137" y="710"/>
      <point x="138" y="557" type="curve" smooth="yes"/>
      <point x="140" y="149" type="line"/>
      <point x="182" y="210" type="line"/>
      <point x="40" y="163" type="line"/>
    </contour>
    <contour>
      <point x="216" y="308" type="line"/>
      <point x="230" y="309" type="line"/>
      <point x="460" y="356" type="line"/>
      <point x="460" y="502" type="line"/>
      <point x="232" y="534" type="line"/>
      <point x="216" y="540" type="line"/>
      <point x="47" y="504" type="line"/>
      <point x="47" y="354" type="line"/>
    </contour>
  </outline>
</glyph>
<glyph name="g" format="2">
  <advance width="626"/>
  <unicode hex="0067"/>
  <guideline x="372" y="0" angle="90" identifier="xWDXbXQoqp"/>
  <outline>
    <contour>
      <point x="23" y="261" type="curve" smooth="yes"/>
      <point x="23" y="90"/>
      <point x="63" y="20"/>
      <point x="198" y="20" type="curve" smooth="yes"/>
      <point x="311" y="20"/>
      <point x="353" y="71"/>
      <point x="353" y="154" type="curve"/>
      <point x="271" y="106" type="line"/>
      <point x="402" y="106" type="line"/>
      <point x="435" y="249" type="line"/>
      <point x="390" y="177"/>
      <point x="351" y="170"/>
      <point x="282" y="170" type="curve"/>
      <point x="217" y="170"/>
      <point x="177" y="180"/>
      <point x="177" y="278" type="curve" smooth="yes"/>
      <point x="177" y="350"/>
      <point x="217" y="368"/>
      <point x="282" y="368" type="curve"/>
      <point x="333" y="368"/>
      <point x="390" y="363"/>
      <point x="425" y="304" type="curve"/>
      <point x="407" y="435" type="line"/>
      <point x="326" y="435" type="line"/>
      <point x="360" y="382" type="line"/>
      <point x="350" y="511"/>
      <point x="318" y="558"/>
      <point x="222" y="558" type="curve"/>
      <point x="73" y="558"/>
      <point x="23" y="475"/>
    </contour>
    <contour>
      <point x="46" y="-15" type="curve"/>
      <point x="10" y="-148" type="line"/>
      <point x="82" y="-189"/>
      <point x="139" y="-220"/>
      <point x="283" y="-220" type="curve" smooth="yes"/>
      <point x="470" y="-220"/>
      <point x="558" y="-159"/>
      <point x="558" y="100" type="curve" smooth="yes"/>
      <point x="558" y="407" type="line"/>
      <point x="528" y="347" type="line"/>
      <point x="612" y="347" type="line"/>
      <point x="612" y="540" type="line"/>
      <point x="390" y="540" type="line"/>
      <point x="390" y="102" type="line" smooth="yes"/>
      <point x="390" y="-6"/>
      <point x="382" y="-44"/>
      <point x="254" y="-44" type="curve" smooth="yes"/>
      <point x="180" y="-44"/>
      <point x="118" y="-40"/>
    </contour>
  </outline>
</glyph>
<glyph name="h" format="2">
  <advance width="652"/>
  <unicode hex="0068"/>
  <outline>
    <contour>
      <point x="645" y="152" type="line"/>
      <point x="533" y="199" type="line"/>
      <point x="579" y="82" type="line"/>
      <point x="579" y="374" type="line" smooth="yes"/>
      <point x="579" y="526"/>
      <point x="542" y="558"/>
      <point x="433" y="558" type="curve"/>
      <point x="323" y="558"/>
      <point x="306" y="514"/>
      <point x="300" y="409" type="curve"/>
      <point x="361" y="435" type="line"/>
      <point x="227" y="435" type="line"/>
      <point x="218" y="303" type="line"/>
      <point x="242" y="336"/>
      <point x="293" y="358"/>
      <point x="347" y="360" type="curve" smooth="yes"/>
      <point x="413" y="362"/>
      <point x="424" y="346"/>
      <point x="424" y="288" type="curve" smooth="yes"/>
      <point x="424" y="82" type="line"/>
      <point x="459" y="199" type="line"/>
      <point x="377" y="152" type="line"/>
      <point x="377" y="0" type="line"/>
      <point x="645" y="0" type="line"/>
    </contour>
    <contour>
      <point x="308" y="0" type="line"/>
      <point x="308" y="152" type="line"/>
      <point x="226" y="199" type="line"/>
      <point x="253" y="85" type="line"/>
      <point x="253" y="740" type="line"/>
      <point x="26" y="740" type="line"/>
      <point x="26" y="578" type="line"/>
      <point x="155" y="520" type="line"/>
      <point x="97" y="648" type="line"/>
      <point x="97" y="92" type="line"/>
      <point x="129" y="199" type="line"/>
      <point x="26" y="152" type="line"/>
      <point x="26" y="0" type="line"/>
    </contour>
  </outline>
</glyph>
<glyph name="i" format="2">
  <advance width="324"/>
  <unicode hex="0069"/>
  <outline>
    <contour>
      <point x="26" y="0" type="line"/>
      <point x="308" y="0" type="line"/>
      <point x="308" y="152" type="line"/>
      <point x="226" y="199" type="line"/>
      <point x="253" y="85" type="line"/>
      <point x="253" y="540" type="line"/>
      <point x="26" y="540" type="line"/>
      <point x="26" y="378" type="line"/>
      <point x="155" y="320" type="line"/>
      <point x="97" y="448" type="line"/>
      <point x="97" y="92" type="line"/>
      <point x="129" y="199" type="line"/>
      <point x="26" y="152" type="line"/>
    </contour>
    <contour>
      <point x="140" y="605" type="curve" smooth="yes"/>
      <point x="234" y="604"/>
      <point x="263" y="630"/>
      <point x="263" y="717" type="curve" smooth="yes"/>
      <point x="263" y="804"/>
      <point x="234" y="830"/>
      <point x="140" y="830" type="curve" smooth="yes"/>
      <point x="46" y="830"/>
      <point x="17" y="804"/>
      <point x="17" y="718" type="curve" smooth="yes"/>
      <point x="17" y="633"/>
      <point x="46" y="606"/>
    </contour>
  </outline>
</glyph>
<glyph name="j" format="2">
  <advance width="311"/>
  <unicode hex="006A"/>
  <outline>
    <contour>
      <point x="-71" y="-28" type="curve"/>
      <point x="-101" y="-185" type="line"/>
      <point x="-52" y="-201"/>
      <point x="12" y="-224"/>
      <point x="56" y="-224" type="curve" smooth="yes"/>
      <point x="180" y="-224"/>
      <point x="270.019" y="-199.644"/>
      <point x="269" y="50" type="curve" smooth="yes"/>
      <point x="267" y="540" type="line"/>
      <point x="19" y="540" type="line"/>
      <point x="19" y="366" type="line"/>
      <point x="173" y="319" type="line"/>
      <point x="118" y="446" type="line"/>
      <point x="118" y="122" type="line" smooth="yes"/>
      <point x="118" y="4.03226"/>
      <point x="121" y="-37"/>
      <point x="32" y="-37" type="curve" smooth="yes"/>
      <point x="7" y="-37"/>
      <point x="-30" y="-33"/>
    </contour>
    <contour>
      <point x="155" y="632" type="curve" smooth="yes"/>
      <point x="222" y="632"/>
      <point x="253" y="660"/>
      <point x="253" y="725" type="curve" smooth="yes"/>
      <point x="253" y="795"/>
      <point x="221" y="819"/>
      <point x="151" y="819" type="curve" smooth="yes"/>
      <point x="78" y="819"/>
      <point x="49" y="792"/>
      <point x="49" y="726" type="curve" smooth="yes"/>
      <point x="49" y="655"/>
      <point x="79" y="632"/>
    </contour>
  </outline>
</glyph>
<glyph name="k" format="2">
  <advance width="579"/>
  <unicode hex="006B"/>
  <outline>
    <contour>
      <point x="288" y="0" type="line"/>
      <point x="288" y="152" type="line"/>
      <point x="206" y="199" type="line"/>
      <point x="233" y="85" type="line"/>
      <point x="233" y="740" type="line"/>
      <point x="6" y="740" type="line"/>
      <point x="6" y="578" type="line"/>
      <point x="135" y="520" type="line"/>
      <point x="77" y="648" type="line"/>
      <point x="77" y="92" type="line"/>
      <point x="109" y="199" type="line"/>
      <point x="6" y="152" type="line"/>
      <point x="6" y="0" type="line"/>
    </contour>
    <contour>
      <point x="304" y="243" type="line"/>
      <point x="442" y="135" type="line"/>
      <point x="394" y="199" type="line"/>
      <point x="335" y="152" type="line"/>
      <point x="337" y="0" type="line"/>
      <point x="569" y="0" type="line"/>
      <point x="569" y="162" type="line"/>
      <point x="362" y="205" type="line"/>
      <point x="556" y="130" type="line"/>
      <point x="385" y="301" type="line"/>
      <point x="377" y="228" type="line"/>
      <point x="548" y="418" type="line"/>
      <point x="428" y="354" type="line"/>
      <point x="585" y="388" type="line"/>
      <point x="585" y="540" type="line"/>
      <point x="304" y="540" type="line"/>
      <point x="304" y="378" type="line"/>
      <point x="380" y="325" type="line"/>
      <point x="399" y="390" type="line"/>
      <point x="280" y="257" type="line"/>
      <point x="414" y="310" type="line"/>
      <point x="117" y="310" type="line"/>
      <point x="136" y="224" type="line"/>
      <point x="342" y="224" type="line"/>
    </contour>
  </outline>
</glyph>
<glyph name="l" format="2">
  <advance width="329"/>
  <unicode hex="006C"/>
  <outline>
    <contour>
      <point x="308" y="0" type="line"/>
      <point x="308" y="152" type="line"/>
      <point x="226" y="199" type="line"/>
      <point x="253" y="85" type="line"/>
      <point x="253" y="740" type="line"/>
      <point x="26" y="740" type="line"/>
      <point x="26" y="578" type="line"/>
      <point x="155" y="520" type="line"/>
      <point x="97" y="648" type="line"/>
      <point x="97" y="92" type="line"/>
      <point x="129" y="199" type="line"/>
      <point x="26" y="152" type="line"/>
      <point x="26" y="0" type="line"/>
    </contour>
  </outline>
</glyph>
<glyph name="m" format="2">
  <advance width="1040"/>
  <unicode hex="006D"/>
  <outline>
    <contour>
      <point x="39" y="-1" type="line"/>
      <point x="339" y="-1" type="line"/>
      <point x="339" y="152" type="line"/>
      <point x="239" y="202" type="line"/>
      <point x="285" y="88" type="line"/>
      <point x="285" y="540" type="line"/>
      <point x="39" y="540" type="line"/>
      <point x="39" y="378" type="line"/>
      <point x="169" y="327" type="line"/>
      <point x="119" y="448" type="line"/>
      <point x="119" y="95" type="line"/>
      <point x="142" y="202" type="line"/>
      <point x="39" y="152" type="line"/>
    </contour>
    <contour>
      <point x="397" y="-1" type="line"/>
      <point x="674" y="-1" type="line"/>
      <point x="674" y="149" type="line"/>
      <point x="552" y="212" type="line"/>
      <point x="618" y="85" type="line"/>
      <point x="618" y="369" type="line" smooth="yes"/>
      <point x="618" y="518"/>
      <point x="559" y="558"/>
      <point x="467" y="558" type="curve" smooth="yes"/>
      <point x="367" y="558"/>
      <point x="339" y="514"/>
      <point x="333" y="409" type="curve"/>
      <point x="374" y="435" type="line"/>
      <point x="240" y="435" type="line"/>
      <point x="230" y="307" type="line"/>
      <point x="268.083" y="358.463"/>
      <point x="320.509" y="366"/>
      <point x="364" y="366" type="curve"/>
      <point x="428.705" y="366"/>
      <point x="442" y="345"/>
      <point x="442" y="288" type="curve" smooth="yes"/>
      <point x="442" y="85" type="line"/>
      <point x="468" y="202" type="line"/>
      <point x="397" y="152" type="line"/>
    </contour>
    <contour>
      <point x="732" y="-1" type="line"/>
      <point x="1018" y="-1" type="line"/>
      <point x="1018" y="163" type="line"/>
      <point x="906" y="202" type="line"/>
      <point x="952" y="85" type="line"/>
      <point x="952" y="369" type="line" smooth="yes"/>
      <point x="952" y="516"/>
      <point x="907" y="558"/>
      <point x="801" y="558" type="curve" smooth="yes"/>
      <point x="691" y="558"/>
      <point x="663" y="514"/>
      <point x="657" y="409" type="curve"/>
      <point x="708" y="435" type="line"/>
      <point x="574" y="435" type="line"/>
      <point x="564" y="307" type="line"/>
      <point x="600.939" y="358.304"/>
      <point x="665.032" y="366"/>
      <point x="708" y="366" type="curve"/>
      <point x="771.641" y="366"/>
      <point x="776" y="345.306"/>
      <point x="776" y="288" type="curve" smooth="yes"/>
      <point x="776" y="85" type="line"/>
      <point x="812" y="202" type="line"/>
      <point x="732" y="149" type="line"/>
    </contour>
  </outline>
</glyph>
<glyph name="n" format="2">
  <advance width="652"/>
  <unicode hex="006E"/>
  <outline>
    <contour>
      <point x="27" y="0" type="line"/>
      <point x="308" y="0" type="line"/>
      <point x="308" y="152" type="line"/>
      <point x="227" y="199" type="line"/>
      <point x="253" y="85" type="line"/>
      <point x="253" y="540" type="line"/>
      <point x="27" y="540" type="line"/>
      <point x="27" y="378" type="line"/>
      <point x="156" y="320" type="line"/>
      <point x="98" y="448" type="line"/>
      <point x="98" y="92" type="line"/>
      <point x="130" y="199" type="line"/>
      <point x="27" y="152" type="line"/>
    </contour>
    <contour>
      <point x="377" y="0" type="line"/>
      <point x="645" y="0" type="line"/>
      <point x="645" y="152" type="line"/>
      <point x="530.474" y="206.194" type="line"/>
      <point x="579" y="82" type="line"/>
      <point x="579" y="374" type="line" smooth="yes"/>
      <point x="579" y="526"/>
      <point x="542" y="558"/>
      <point x="433" y="558" type="curve"/>
      <point x="323" y="558"/>
      <point x="306" y="514"/>
      <point x="300" y="409" type="curve"/>
      <point x="361" y="435" type="line"/>
      <point x="227" y="435" type="line"/>
      <point x="219" y="303" type="line"/>
      <point x="243" y="336"/>
      <point x="293" y="358"/>
      <point x="347" y="360" type="curve" smooth="yes"/>
      <point x="413" y="362"/>
      <point x="424" y="346"/>
      <point x="424" y="288" type="curve" smooth="yes"/>
      <point x="424" y="82" type="line"/>
      <point x="454.802" y="205.563" type="line"/>
      <point x="377" y="152" type="line"/>
    </contour>
  </outline>
</glyph>
<glyph name="o" format="2">
  <advance width="576"/>
  <unicode hex="006F"/>
  <outline>
    <contour>
      <point x="289" y="-18" type="curve" smooth="yes"/>
      <point x="475" y="-18"/>
      <point x="552" y="66"/>
      <point x="552" y="272" type="curve" smooth="yes"/>
      <point x="552" y="474"/>
      <point x="475" y="558"/>
      <point x="289" y="558" type="curve" smooth="yes"/>
      <point x="101" y="558"/>
      <point x="24" y="474"/>
      <point x="24" y="272" type="curve" smooth="yes"/>
      <point x="24" y="66"/>
      <point x="101" y="-18"/>
    </contour>
    <contour>
      <point x="289" y="163" type="curve" smooth="yes"/>
      <point x="216" y="163"/>
      <point x="181" y="180"/>
      <point x="181" y="272" type="curve" smooth="yes"/>
      <point x="181" y="362"/>
      <point x="216" y="378"/>
      <point x="289" y="378" type="curve" smooth="yes"/>
      <point x="361" y="378"/>
      <point x="394" y="362"/>
      <point x="394" y="272" type="curve" smooth="yes"/>
      <point x="394" y="180"/>
      <point x="361" y="163"/>
    </contour>
  </outline>
</glyph>
<glyph name="p" format="2">
  <advance width="629"/>
  <unicode hex="0070"/>
  <outline>
    <contour>
      <point x="5" y="-210" type="line"/>
      <point x="5" y="-79" type="line"/>
      <point x="110" y="-39" type="line"/>
      <point x="80" y="-89" type="line"/>
      <point x="80" y="449" type="line"/>
      <point x="110" y="329" type="line"/>
      <point x="20" y="329" type="line"/>
      <point x="20" y="540" type="line"/>
      <point x="235" y="540" type="line"/>
      <point x="235" y="-84" type="line"/>
      <point x="211" y="-27" type="line"/>
      <point x="388" y="-90" type="line"/>
      <point x="388" y="-210" type="line"/>
    </contour>
    <contour>
      <point x="605" y="276" type="curve" smooth="yes"/>
      <point x="605" y="86"/>
      <point x="565" y="-6"/>
      <point x="421" y="-6" type="curve" smooth="yes"/>
      <point x="327" y="-6"/>
      <point x="271" y="33"/>
      <point x="269" y="153" type="curve"/>
      <point x="341" y="105" type="line"/>
      <point x="219" y="105" type="line"/>
      <point x="187" y="264" type="line"/>
      <point x="232" y="186"/>
      <point x="281" y="170"/>
      <point x="350" y="170" type="curve" smooth="yes"/>
      <point x="411" y="170"/>
      <point x="450" y="190"/>
      <point x="450" y="269" type="curve" smooth="yes"/>
      <point x="450" y="357"/>
      <point x="410" y="372"/>
      <point x="349" y="372" type="curve" smooth="yes"/>
      <point x="283" y="372"/>
      <point x="244" y="352"/>
      <point x="207" y="311" type="curve"/>
      <point x="224" y="444" type="line"/>
      <point x="345" y="444" type="line"/>
      <point x="263" y="396" type="line"/>
      <point x="282" y="523"/>
      <point x="312" y="558"/>
      <point x="415" y="558" type="curve" smooth="yes"/>
      <point x="546" y="558"/>
      <point x="605" y="481"/>
    </contour>
  </outline>
</glyph>
<glyph name="q" format="2">
  <advance width="642"/>
  <unicode hex="0071"/>
  <outline>
    <contour>
      <point x="25" y="276" type="curve" smooth="yes"/>
      <point x="25" y="86"/>
      <point x="65" y="-6"/>
      <point x="209" y="-6" type="curve" smooth="yes"/>
      <point x="303" y="-6"/>
      <point x="359" y="33"/>
      <point x="361" y="153" type="curve"/>
      <point x="289" y="105" type="line"/>
      <point x="411" y="105" type="line"/>
      <point x="443" y="264" type="line"/>
      <point x="398" y="186"/>
      <point x="349" y="170"/>
      <point x="280" y="170" type="curve" smooth="yes"/>
      <point x="219" y="170"/>
      <point x="180" y="190"/>
      <point x="180" y="269" type="curve" smooth="yes"/>
      <point x="180" y="357"/>
      <point x="220" y="372"/>
      <point x="281" y="372" type="curve" smooth="yes"/>
      <point x="347" y="372"/>
      <point x="386" y="352"/>
      <point x="423" y="311" type="curve"/>
      <point x="406" y="444" type="line"/>
      <point x="285" y="444" type="line"/>
      <point x="367" y="396" type="line"/>
      <point x="348" y="523"/>
      <point x="318" y="558"/>
      <point x="215" y="558" type="curve" smooth="yes"/>
      <point x="84" y="558"/>
      <point x="25" y="481"/>
    </contour>
    <contour>
      <point x="229" y="-210" type="line"/>
      <point x="631" y="-210" type="line"/>
      <point x="631" y="-47" type="line"/>
      <point x="501" y="-11" type="line"/>
      <point x="549" y="-68" type="line"/>
      <point x="549" y="540" type="line"/>
      <point x="414" y="540" type="line"/>
      <point x="394" y="444" type="line"/>
      <point x="394" y="-68" type="line"/>
      <point x="437" y="-10" type="line"/>
      <point x="229" y="-57" type="line"/>
    </contour>
    <contour>
      <point x="486" y="340" type="line"/>
      <point x="631" y="340" type="line"/>
      <point x="631" y="540" type="line"/>
      <point x="486" y="540" type="line"/>
    </contour>
  </outline>
</glyph>
<glyph name="r" format="2">
  <advance width="570"/>
  <unicode hex="0072"/>
  <outline>
    <contour>
      <point x="369" y="-1" type="line"/>
      <point x="369" y="139" type="line"/>
      <point x="183" y="181" type="line"/>
      <point x="270" y="138" type="line"/>
      <point x="270" y="539" type="line"/>
      <point x="29" y="539" type="line"/>
      <point x="29" y="356" type="line"/>
      <point x="141" y="356" type="line"/>
      <point x="108" y="448" type="line"/>
      <point x="108" y="145" type="line"/>
      <point x="138" y="176" type="line"/>
      <point x="29" y="138" type="line"/>
      <point x="29" y="-1" type="line"/>
    </contour>
    <contour>
      <point x="548" y="247" type="line"/>
      <point x="575" y="518" type="line"/>
      <point x="559.495" y="538.673"/>
      <point x="506.273" y="555"/>
      <point x="455" y="555" type="curve" smooth="yes"/>
      <point x="358" y="555"/>
      <point x="313" y="521"/>
      <point x="310" y="410" type="curve"/>
      <point x="374" y="445" type="line"/>
      <point x="253" y="445" type="line"/>
      <point x="238" y="320" type="line"/>
      <point x="259" y="344"/>
      <point x="289" y="359"/>
      <point x="327" y="364" type="curve" smooth="yes"/>
      <point x="361" y="368"/>
      <point x="400" y="365"/>
      <point x="442" y="352" type="curve"/>
      <point x="373" y="409" type="line"/>
      <point x="393" y="247" type="line"/>
    </contour>
  </outline>
  <guideline angle="0" x="0" y="419"/>
  <guideline angle="90" x="-1422" y="0"/>
</glyph>
<glyph name="s" format="2">
  <advance width="514"/>
  <unicode hex="0073"/>
  <outline>
    <contour>
      <point x="450" y="358" type="line"/>
      <point x="464" y="523" type="line"/>
      <point x="418" y="541"/>
      <point x="357" y="558"/>
      <point x="270" y="558" type="curve" smooth="yes"/>
      <point x="92" y="558"/>
      <point x="28" y="516"/>
      <point x="28" y="386" type="curve"/>
      <point x="28" y="280.254"/>
      <point x="78.0744" y="236.41"/>
      <point x="215" y="225" type="curve" smooth="yes"/>
      <point x="227" y="224" type="line" smooth="yes"/>
      <point x="303" y="218"/>
      <point x="314" y="213"/>
      <point x="314" y="177" type="curve" smooth="yes"/>
      <point x="314" y="143"/>
      <point x="285" y="136"/>
      <point x="228" y="136" type="curve" smooth="yes"/>
      <point x="155" y="136"/>
      <point x="112" y="150"/>
      <point x="67" y="174" type="curve"/>
      <point x="174" y="75" type="line"/>
      <point x="165" y="198" type="line"/>
      <point x="41" y="201" type="line"/>
      <point x="20" y="30" type="line"/>
      <point x="88" y="3"/>
      <point x="131" y="-12"/>
      <point x="243" y="-15" type="curve" smooth="yes"/>
      <point x="402" y="-19"/>
      <point x="483" y="38"/>
      <point x="483" y="151" type="curve" smooth="yes"/>
      <point x="483" y="270.63"/>
      <point x="454.05" y="308.996"/>
      <point x="310" y="321" type="curve" smooth="yes"/>
      <point x="298" y="322" type="line" smooth="yes"/>
      <point x="212" y="329"/>
      <point x="198" y="333"/>
      <point x="199" y="372" type="curve"/>
      <point x="200" y="401"/>
      <point x="211" y="413"/>
      <point x="263" y="413" type="curve" smooth="yes"/>
      <point x="290.262" y="413"/>
      <point x="314" y="415"/>
      <point x="371" y="393" type="curve"/>
      <point x="309" y="500" type="line"/>
      <point x="319" y="358" type="line"/>
    </contour>
  </outline>
</glyph>
<glyph name="t" format="2">
  <advance width="422"/>
  <unicode hex="0074"/>
  <outline>
    <contour>
      <point x="78" y="281" type="line"/>
      <point x="78" y="135" type="line" smooth="yes"/>
      <point x="78" y="39"/>
      <point x="115" y="-18"/>
      <point x="239" y="-18" type="curve" smooth="yes"/>
      <point x="297" y="-18"/>
      <point x="357" y="-2"/>
      <point x="409" y="43" type="curve"/>
      <point x="372" y="174" type="line"/>
      <point x="345" y="169"/>
      <point x="341" y="169"/>
      <point x="301" y="168" type="curve" smooth="yes"/>
      <point x="250" y="167"/>
      <point x="234" y="189"/>
      <point x="234" y="263" type="curve" smooth="yes"/>
      <point x="234" y="640" type="line"/>
      <point x="78" y="640" type="line"/>
    </contour>
    <contour>
      <point x="-5" y="521" type="line"/>
      <point x="-5" y="356" type="line"/>
      <point x="114" y="342" type="line"/>
      <point x="159" y="342" type="line"/>
      <point x="367" y="356" type="line"/>
      <point x="367" y="521" type="line"/>
      <point x="151" y="538" type="line"/>
      <point x="113" y="537" type="line"/>
    </contour>
  </outline>
</glyph>
<glyph name="u" format="2">
  <advance width="670"/>
  <unicode hex="0075"/>
  <outline>
    <contour>
      <point x="297" y="105" type="line"/>
      <point x="420" y="105" type="line"/>
      <point x="420" y="248" type="line"/>
      <point x="388" y="189"/>
      <point x="357" y="166"/>
      <point x="313" y="166" type="curve" smooth="yes"/>
      <point x="246" y="166"/>
      <point x="221" y="182"/>
      <point x="221" y="252" type="curve"/>
      <point x="221" y="540" type="line"/>
      <point x="10" y="540" type="line"/>
      <point x="10" y="386" type="line"/>
      <point x="112" y="356" type="line"/>
      <point x="66" y="458" type="line"/>
      <point x="66" y="146" type="line" smooth="yes"/>
      <point x="66" y="30"/>
      <point x="110" y="-18"/>
      <point x="216" y="-18" type="curve" smooth="yes"/>
      <point x="329" y="-18"/>
      <point x="342" y="26"/>
      <point x="358" y="131" type="curve"/>
    </contour>
    <contour>
      <point x="395" y="0" type="line"/>
      <point x="618" y="0" type="line"/>
      <point x="618" y="164" type="line"/>
      <point x="492" y="229" type="line"/>
      <point x="551" y="92" type="line"/>
      <point x="551" y="448" type="line"/>
      <point x="519" y="356" type="line"/>
      <point x="618" y="386" type="line"/>
      <point x="618" y="540" type="line"/>
      <point x="340" y="540" type="line"/>
      <point x="340" y="386" type="line"/>
      <point x="422" y="356" type="line"/>
      <point x="395" y="455" type="line"/>
    </contour>
  </outline>
  <guideline angle="0" x="0" y="105"/>
</glyph>
<glyph name="v" format="2">
  <advance width="649"/>
  <unicode hex="0076"/>
  <outline>
    <contour>
      <point x="205" y="0" type="line"/>
      <point x="442" y="0" type="line"/>
      <point x="632" y="462" type="line"/>
      <point x="472" y="304" type="line"/>
      <point x="655" y="378" type="line"/>
      <point x="655" y="540" type="line"/>
      <point x="345" y="540" type="line"/>
      <point x="345" y="378" type="line"/>
      <point x="457" y="316" type="line"/>
      <point x="439" y="426" type="line"/>
      <point x="316" y="62" type="line"/>
      <point x="338" y="62" type="line"/>
      <point x="209" y="429" type="line"/>
      <point x="178" y="310" type="line"/>
      <point x="309" y="378" type="line"/>
      <point x="309" y="540" type="line"/>
      <point x="-4" y="540" type="line"/>
      <point x="-4" y="378" type="line"/>
      <point x="82" y="338" type="line"/>
      <point x="30" y="426" type="line"/>
    </contour>
    <contour>
      <point x="252" y="80" type="line"/>
      <point x="406" y="80" type="line"/>
      <point x="406" y="174" type="line"/>
      <point x="252" y="174" type="line"/>
    </contour>
  </outline>
</glyph>
<glyph name="w" format="2">
  <advance width="894"/>
  <unicode hex="0077"/>
  <guideline x="-115" y="196" angle="0" identifier="RRCDfvGbqO"/>
  <outline>
    <contour>
      <point x="145" y="347" type="line"/>
      <point x="275" y="378" type="line"/>
      <point x="275" y="540" type="line"/>
      <point x="20" y="540" type="line"/>
      <point x="20" y="378" type="line"/>
      <point x="125" y="349" type="line"/>
    </contour>
    <contour>
      <point x="749" y="347" type="line"/>
      <point x="769" y="349" type="line"/>
      <point x="874" y="378" type="line"/>
      <point x="874" y="540" type="line"/>
      <point x="619" y="540" type="line"/>
      <point x="619" y="378" type="line"/>
    </contour>
    <contour>
      <point x="468" y="219" type="line"/>
      <point x="468" y="390" type="line"/>
      <point x="422" y="390" type="line"/>
      <point x="422" y="219" type="line"/>
    </contour>
    <contour>
      <point x="498" y="468" type="line"/>
      <point x="395" y="468" type="line"/>
      <point x="293" y="146" type="line"/>
      <point x="331" y="174" type="line"/>
      <point x="234" y="174" type="line"/>
      <point x="279" y="155" type="line"/>
      <point x="189" y="494" type="line"/>
      <point x="35" y="481" type="line"/>
      <point x="177" y="0" type="line"/>
      <point x="369" y="0" type="line"/>
      <point x="460" y="332" type="line"/>
      <point x="432" y="332" type="line"/>
      <point x="523" y="0" type="line"/>
      <point x="715" y="0" type="line"/>
      <point x="857" y="481" type="line"/>
      <point x="703" y="494" type="line"/>
      <point x="613" y="155" type="line"/>
      <point x="658" y="174" type="line"/>
      <point x="561" y="174" type="line"/>
      <point x="599" y="146" type="line"/>
    </contour>
  </outline>
</glyph>
<glyph name="x" format="2">
  <advance width="581"/>
  <unicode hex="0078"/>
  <outline>
    <contour>
      <point x="145" y="347" type="line"/>
      <point x="165" y="349" type="line"/>
      <point x="260" y="378" type="line"/>
      <point x="260" y="540" type="line"/>
      <point x="22" y="540" type="line"/>
      <point x="22" y="378" type="line"/>
    </contour>
    <contour>
      <point x="456" y="347" type="line"/>
      <point x="579" y="378" type="line"/>
      <point x="579" y="540" type="line"/>
      <point x="341" y="540" type="line"/>
      <point x="341" y="378" type="line"/>
      <point x="436" y="349" type="line"/>
    </contour>
    <contour>
      <point x="212" y="130" type="line"/>
      <point x="298" y="259" type="line"/>
      <point x="446" y="253" type="line"/>
      <point x="562" y="404" type="line"/>
      <point x="403" y="404" type="line"/>
      <point x="306" y="296" type="line"/>
      <point x="162" y="296" type="line"/>
      <point x="31" y="130" type="line"/>
    </contour>
    <contour>
      <point x="387" y="130" type="line"/>
      <point x="569" y="130" type="line"/>
      <point x="431" y="313" type="line"/>
      <point x="298" y="262" type="line"/>
    </contour>
    <contour>
      <point x="289" y="298" type="line"/>
      <point x="191" y="414" type="line"/>
      <point x="27" y="414" type="line"/>
      <point x="153" y="248" type="line"/>
    </contour>
    <contour>
      <point x="240" y="234" type="line"/>
      <point x="360" y="234" type="line"/>
      <point x="360" y="312" type="line"/>
      <point x="240" y="312" type="line"/>
    </contour>
    <contour>
      <point x="145" y="193" type="line"/>
      <point x="22" y="162" type="line"/>
      <point x="22" y="0" type="line"/>
      <point x="260" y="0" type="line"/>
      <point x="260" y="162" type="line"/>
      <point x="165" y="191" type="line"/>
    </contour>
    <contour>
      <point x="456" y="193" type="line"/>
      <point x="436" y="191" type="line"/>
      <point x="341" y="162" type="line"/>
      <point x="341" y="0" type="line"/>
      <point x="579" y="0" type="line"/>
      <point x="579" y="162" type="line"/>
    </contour>
  </outline>
</glyph>
<glyph name="y" format="2">
  <advance width="687"/>
  <unicode hex="0079"/>
  <guideline x="359" y="339" angle="0" identifier="OvKM5vqqq6"/>
  <outline>
    <contour>
      <point x="8" y="-148" type="line"/>
      <point x="53" y="-174"/>
      <point x="136" y="-220"/>
      <point x="230" y="-220" type="curve" smooth="yes"/>
      <point x="316" y="-220"/>
      <point x="416" y="-190"/>
      <point x="459" y="-55" type="curve" smooth="yes"/>
      <point x="588" y="353" type="line"/>
      <point x="564" y="327" type="line"/>
      <point x="655" y="378" type="line"/>
      <point x="655" y="540" type="line"/>
      <point x="348" y="540" type="line"/>
      <point x="348" y="378" type="line"/>
      <point x="433" y="331" type="line"/>
      <point x="424" y="355" type="line"/>
      <point x="326" y="40" type="line" smooth="yes"/>
      <point x="305" y="-27"/>
      <point x="279" y="-44"/>
      <point x="213" y="-44" type="curve"/>
      <point x="156" y="-44"/>
      <point x="95" y="-32"/>
      <point x="46" y="-15" type="curve"/>
    </contour>
    <contour>
      <point x="42" y="416" type="line"/>
      <point x="207" y="0" type="line"/>
      <point x="361" y="0" type="line"/>
      <point x="236" y="370" type="line"/>
      <point x="205" y="314" type="line"/>
      <point x="315" y="378" type="line"/>
      <point x="315" y="540" type="line"/>
      <point x="10" y="540" type="line"/>
      <point x="10" y="378" type="line"/>
      <point x="101" y="335" type="line"/>
    </contour>
    <contour>
      <point x="279" y="64" type="line"/>
      <point x="401" y="64" type="line"/>
      <point x="401" y="174" type="line"/>
      <point x="279" y="174" type="line"/>
    </contour>
  </outline>
</glyph>
<glyph name="z" format="2">
  <advance width="566"/>
  <unicode hex="007A"/>
  <outline>
    <contour>
      <point x="51" y="170" type="line"/>
      <point x="51" y="0" type="line"/>
      <point x="536" y="0" type="line"/>
      <point x="522" y="277" type="line"/>
      <point x="424" y="277" type="line"/>
      <point x="390" y="56" type="line"/>
      <point x="468" y="160" type="line"/>
      <point x="95" y="160" type="line"/>
      <point x="131" y="77" type="line"/>
      <point x="512" y="371" type="line"/>
      <point x="512" y="540" type="line"/>
      <point x="31" y="540" type="line"/>
      <point x="49" y="267" type="line"/>
      <point x="147" y="267" type="line"/>
      <point x="178" y="501" type="line"/>
      <point x="124" y="381" type="line"/>
      <point x="462" y="381" type="line"/>
      <point x="428" y="448" type="line"/>
    </contour>
    <contour>
      <point x="64" y="49" type="line"/>
      <point x="247" y="49" type="line"/>
      <point x="247" y="217" type="line"/>
      <point x="87" y="184" type="line"/>
    </contour>
    <contour>
      <point x="328" y="323" type="line"/>
      <point x="466" y="343" type="line"/>
      <point x="476" y="457" type="line"/>
      <point x="328" y="457" type="line"/>
    </contour>
  </outline>
</glyph>
<glyph name="dieresis" format="2">
  <advance width="403"/>
  <unicode hex="00A8"/>
  <outline>
    <contour>
      <point x="97" y="609" type="curve" smooth="yes"/>
      <point x="145" y="609"/>
      <point x="165" y="628"/>
      <point x="165" y="679" type="curve" smooth="yes"/>
      <point x="165" y="731"/>
      <point x="142" y="750"/>
      <point x="97" y="750" type="curve"/>
      <point x="52" y="750"/>
      <point x="30" y="730"/>
      <point x="30" y="680" type="curve" smooth="yes"/>
      <point x="30" y="626"/>
      <point x="52" y="609"/>
    </contour>
    <contour>
      <point x="305" y="609" type="curve" smooth="yes"/>
      <point x="347" y="609"/>
      <point x="373" y="628"/>
      <point x="373" y="679" type="curve" smooth="yes"/>
      <point x="373" y="731"/>
      <point x="349" y="750"/>
      <point x="305" y="750" type="curve"/>
      <point x="259" y="750"/>
      <point x="238" y="730"/>
      <point x="238" y="680" type="curve" smooth="yes"/>
      <point x="238" y="626"/>
      <point x="260" y="609"/>
    </contour>
  </outline>
</glyph>
<glyph name="Aacute" format="2">
  <advance width="580"/>
  <unicode hex="00C1"/>
  <outline>
    <contour>
      <point x="267" y="852" type="line"/>
      <point x="304" y="797" type="line"/>
      <point x="539" y="903" type="line"/>
      <point x="457" y="1022" type="line"/>
    </contour>
    <component base="A"/>
  </outline>
</glyph>
<glyph name="Ntilde" format="2">
  <advance width="912"/>
  <unicode hex="00D1"/>
  <outline>
    <component base="N" xOffset="30"/>
    <contour>
      <point x="299" y="832" type="curve"/>
      <point x="215" y="832" type="line"/>
      <point x="215" y="963"/>
      <point x="243" y="1010"/>
      <point x="343" y="1010" type="curve"/>
      <point x="408" y="1010"/>
      <point x="432" y="995"/>
      <point x="450" y="968" type="curve" smooth="yes"/>
      <point x="454" y="962" type="line"/>
      <point x="466" y="942"/>
      <point x="485" y="927"/>
      <point x="516" y="927" type="curve" smooth="yes"/>
      <point x="557" y="927"/>
      <point x="570" y="948"/>
      <point x="570" y="1008" type="curve"/>
      <point x="654" y="1008" type="line"/>
      <point x="654" y="872"/>
      <point x="626" y="824"/>
      <point x="526" y="824" type="curve" smooth="yes"/>
      <point x="462" y="824"/>
      <point x="440" y="840"/>
      <point x="422" y="867" type="curve"/>
      <point x="417" y="873" type="line"/>
      <point x="405" y="892"/>
      <point x="385" y="907"/>
      <point x="354" y="907" type="curve" smooth="yes"/>
      <point x="312" y="907"/>
      <point x="299" y="889"/>
    </contour>
  </outline>
</glyph>
<glyph name="Udieresis" format="2">
  <advance width="816"/>
  <unicode hex="00DC"/>
  <outline>
    <component base="U"/>
    <contour>
      <point x="99.848" y="835.058" type="line"/>
      <point x="232" y="835.058" type="line"/>
      <point x="232" y="947.465" type="line"/>
      <point x="99.848" y="947.465" type="line"/>
    </contour>
    <contour>
      <point x="559.848" y="830.771" type="line"/>
      <point x="692" y="830.771" type="line"/>
      <point x="692" y="943.178" type="line"/>
      <point x="559.848" y="943.178" type="line"/>
    </contour>
  </outline>
  <guideline angle="0" x="0" y="831"/>
  <guideline angle="0" x="0" y="1008"/>
</glyph>
<glyph name="ntilde" format="2">
  <advance width="656"/>
  <unicode hex="00F1"/>
  <outline>
    <contour>
      <point x="423" y="627" type="curve" smooth="yes"/>
      <point x="361" y="627"/>
      <point x="340" y="643"/>
      <point x="322" y="669" type="curve" smooth="yes"/>
      <point x="318" y="675" type="line" smooth="yes"/>
      <point x="306" y="693"/>
      <point x="287" y="707"/>
      <point x="257" y="707" type="curve" smooth="yes"/>
      <point x="226" y="707"/>
      <point x="214" y="690"/>
      <point x="204" y="635" type="curve"/>
      <point x="130" y="635" type="line"/>
      <point x="110" y="756"/>
      <point x="155.463" y="807"/>
      <point x="246" y="807" type="curve"/>
      <point x="309" y="807"/>
      <point x="332" y="792"/>
      <point x="349" y="766" type="curve" smooth="yes"/>
      <point x="353" y="760" type="line" smooth="yes"/>
      <point x="365" y="741"/>
      <point x="383" y="727"/>
      <point x="413" y="727" type="curve" smooth="yes"/>
      <point x="443" y="727"/>
      <point x="455" y="747"/>
      <point x="465" y="805" type="curve"/>
      <point x="540" y="805" type="line"/>
      <point x="557" y="684"/>
      <point x="514.317" y="627"/>
    </contour>
    <component base="n" xOffset="30"/>
  </outline>
</glyph>
<glyph name="K.alt" format="2">
  <advance width="894"/>
  <outline>
    <contour>
      <point x="492" y="307" type="line"/>
      <point x="261" y="307" type="line"/>
      <point x="261" y="431.188" type="line"/>
      <point x="492" y="431.188" type="line"/>
    </contour>
    <contour>
      <point x="41" y="0" type="line"/>
      <point x="41" y="152" type="line"/>
      <point x="149" y="191" type="line"/>
      <point x="126" y="150" type="line"/>
      <point x="126" y="590" type="line"/>
      <point x="149" y="550" type="line"/>
      <point x="41" y="588" type="line"/>
      <point x="41" y="740" type="line"/>
      <point x="371" y="740" type="line"/>
      <point x="371" y="588" type="line"/>
      <point x="244.271" y="544" type="line"/>
      <point x="283" y="590" type="line"/>
      <point x="283" y="150" type="line"/>
      <point x="250.998" y="195.673" type="line"/>
      <point x="371" y="152" type="line"/>
      <point x="371" y="0" type="line"/>
    </contour>
    <contour>
      <point x="552.567" y="152" type="line"/>
      <point x="386" y="340" type="line"/>
      <point x="365.348" y="346" type="line"/>
      <point x="550.325" y="598.655" type="line"/>
      <point x="572.747" y="544" type="line"/>
      <point x="456" y="588.987" type="line"/>
      <point x="456" y="740" type="line"/>
      <point x="788" y="740" type="line"/>
      <point x="788" y="588.987" type="line"/>
      <point x="672.522" y="540" type="line"/>
      <point x="743.15" y="588" type="line"/>
      <point x="512" y="298" type="line"/>
      <point x="546.962" y="396.861" type="line"/>
      <point x="759.723" y="151.957" type="line"/>
      <point x="677.007" y="205.399" type="line"/>
      <point x="809" y="156" type="line"/>
      <point x="809" y="0" type="line"/>
      <point x="456" y="0" type="line"/>
      <point x="456" y="154" type="line"/>
      <point x="564.899" y="195.673" type="line"/>
    </contour>
  </outline>
  <guideline angle="90" x="456" y="0"/>
</glyph>
<glyph name="b.alt" format="2">
  <advance width="685"/>
  <outline>
    <contour>
      <point x="110" y="0" type="line"/>
      <point x="209" y="0" type="line"/>
      <point x="260" y="75" type="line"/>
      <point x="260" y="760" type="line"/>
      <point x="25" y="760" type="line"/>
      <point x="25" y="597" type="line"/>
      <point x="162" y="597" type="line"/>
      <point x="110" y="669" type="line"/>
    </contour>
    <contour>
      <point x="660" y="261" type="curve" smooth="yes"/>
      <point x="660" y="445"/>
      <point x="627" y="540"/>
      <point x="458" y="540" type="curve" smooth="yes"/>
      <point x="327" y="540"/>
      <point x="318" y="464"/>
      <point x="318" y="378" type="curve"/>
      <point x="380" y="435" type="line"/>
      <point x="249" y="435" type="line"/>
      <point x="249" y="298" type="line"/>
      <point x="286" y="347"/>
      <point x="326" y="376"/>
      <point x="398" y="376" type="curve" smooth="yes"/>
      <point x="469" y="376"/>
      <point x="506" y="358"/>
      <point x="506" y="260" type="curve" smooth="yes"/>
      <point x="506" y="172"/>
      <point x="469" y="154"/>
      <point x="389" y="154" type="curve" smooth="yes"/>
      <point x="337" y="154"/>
      <point x="282" y="177"/>
      <point x="244" y="228" type="curve"/>
      <point x="209" y="184" type="line"/>
      <point x="252" y="59"/>
      <point x="311" y="-18"/>
      <point x="443" y="-18" type="curve" smooth="yes"/>
      <point x="619" y="-18"/>
      <point x="660" y="79"/>
    </contour>
  </outline>
</glyph>
